<svg width="1em" height="1em" viewBox="0 0 870 870" fill="none" xmlns="http://www.w3.org/2000/svg">
    <path
        d="M665.418 498.628C657.713 508.361 635.105 507.753 616.755 509.679C604.691 510.997 594.451 513.43 591.511 520.73C589.889 524.582 590.193 528.232 591.816 531.679C597.594 544.757 621.317 556.314 635.207 574.056C652.847 596.461 619.391 619.779 579.244 609.438C539.097 599.097 511.319 601.429 466.61 606.498C421.901 611.466 374.353 613.493 340.897 591.392C312.612 572.738 325.183 558.95 347.893 552.259C351.948 551.042 356.409 550.029 360.971 549.218C369.183 547.9 376.381 546.379 382.464 544.757C398.583 540.6 406.998 535.937 404.97 531.375C402.132 525.089 374.657 521.541 368.676 508.969C362.694 496.398 373.644 488.288 395.745 481.901C400.915 480.38 406.592 479.67 412.777 479.265C433.357 477.947 459.311 480.177 486.886 470.546C522.775 457.975 551.669 454.224 598.811 460.813C631.76 465.375 652.34 471.458 662.174 478.656C670.386 484.638 671.197 491.329 665.418 498.628Z"
        fill="#809DF9" />
    <path
        d="M382.464 544.757C398.583 540.6 406.998 535.937 404.97 531.375C402.132 525.089 374.657 521.541 368.676 508.969C362.694 496.398 373.644 488.288 395.745 481.901C400.915 480.38 406.592 479.67 412.777 479.265C402.841 482.813 382.971 488.794 377.699 497.006C367.865 512.315 395.441 515.356 410.039 522.352C422.306 528.232 423.32 542.932 382.464 544.757Z"
        fill="#E1ECFF" />
    <path
        d="M665.418 498.629C657.713 508.361 635.105 507.753 616.755 509.679C604.691 510.997 594.451 513.43 591.511 520.73C589.889 524.582 590.193 528.232 591.815 531.679C579.143 524.38 583.401 512.417 596.783 507.449C611.889 501.772 639.464 505.725 655.381 497.716C664.404 493.154 664.1 484.841 662.275 478.657C670.386 484.638 671.197 491.329 665.418 498.629Z"
        fill="#E1ECFF" />
    <path
        d="M579.244 609.438C539.097 599.097 511.319 601.429 466.61 606.498C421.901 611.465 374.353 613.493 340.897 591.392C312.612 572.738 325.183 558.95 347.893 552.259C336.234 558.139 331.57 567.365 341.404 577.401C359.957 596.36 396.252 603.862 441.569 598.59C486.988 593.217 507.264 589.567 543.66 593.014C582.995 596.765 610.47 605.382 624.156 591.493C637.843 577.604 603.069 559.153 591.41 543.337C579.751 527.42 580.866 512.72 600.534 510.388C606.009 509.78 611.483 509.577 616.654 509.78C604.59 511.098 594.35 513.531 591.41 520.831C584.009 539.181 617.465 551.752 635.105 574.157C652.746 596.461 619.29 619.88 579.244 609.438Z"
        fill="#E1ECFF" />
    <path
        d="M399.293 556.01C399.293 556.01 396.86 563.106 408.62 566.655C420.38 570.203 438.528 566.655 438.528 566.655C438.528 566.655 420.989 576.59 403.957 571.724C386.925 566.858 399.293 556.01 399.293 556.01Z"
        fill="#E1ECFF" />
    <path
        d="M505.135 567.467C505.135 567.467 519.936 559.255 537.273 562.803C554.507 566.351 575.595 567.467 581.373 564.02C587.152 560.573 585.631 555.605 585.631 555.605C585.631 555.605 593.235 566.757 579.751 570.914C566.268 575.172 539.706 567.872 530.683 566.453C517.503 564.425 505.135 567.467 505.135 567.467Z"
        fill="#E1ECFF" />
    <path
        d="M587.354 468.822C587.354 468.822 613.207 471.762 622.534 478.656C631.861 485.55 626.183 491.937 626.183 491.937C626.183 491.937 638.248 488.49 631.253 480.177C621.925 469.025 587.354 468.822 587.354 468.822Z"
        fill="#E1ECFF" />
    <path
        d="M430.315 488.693C430.315 488.693 419.772 491.938 424.638 496.398C429.504 500.859 438.831 504.509 438.831 504.509C438.831 504.509 419.873 501.873 416.933 495.993C413.993 490.011 430.315 488.693 430.315 488.693Z"
        fill="#E1ECFF" />
    <path
        d="M597.087 495.587C593.336 500.048 582.184 499.744 573.059 500.656C567.078 501.265 562.009 502.38 560.59 505.726C559.779 507.449 559.981 509.172 560.691 510.795C563.53 516.776 575.29 522.149 582.082 530.26C590.801 540.601 574.276 551.246 554.507 546.481C534.737 541.716 520.95 542.831 498.95 545.163C476.849 547.495 453.43 548.407 436.905 538.167C422.914 529.55 429.2 523.264 440.352 520.122C442.379 519.513 444.508 519.108 446.84 518.702C450.895 518.094 454.444 517.384 457.485 516.675C465.494 514.748 469.549 512.619 468.536 510.49C467.116 507.652 453.633 505.928 450.693 500.251C447.752 494.472 453.126 490.721 464.075 487.781C466.609 487.071 469.448 486.767 472.489 486.564C482.628 485.956 495.503 486.97 509.088 482.611C526.83 476.832 541.023 475.108 564.341 478.15C580.562 480.279 590.7 483.016 595.566 486.362C599.52 489.2 599.925 492.242 597.087 495.587Z"
        fill="#E1ECFF" />
    <path
        d="M584.313 495.587C581.17 499.541 571.944 499.338 564.442 500.149C559.474 500.656 555.318 501.67 554.101 504.712C553.493 506.334 553.594 507.753 554.203 509.172C556.534 514.545 566.267 519.31 571.944 526.508C579.142 535.633 565.456 545.163 549.032 541.006C532.608 536.748 521.254 537.762 503.005 539.789C484.757 541.817 465.291 542.628 451.605 533.605C440.047 526.002 445.218 520.324 454.444 517.587C456.066 517.08 457.891 516.674 459.817 516.37C463.162 515.863 466.102 515.154 468.637 514.545C475.227 512.822 478.674 510.896 477.863 509.071C476.747 506.536 465.494 505.016 463.061 499.947C460.628 494.776 465.089 491.532 474.112 488.896C476.241 488.288 478.572 487.984 481.107 487.781C489.521 487.274 500.166 488.186 511.42 484.233C526.12 479.062 537.982 477.541 557.244 480.279C570.728 482.104 579.142 484.638 583.198 487.578C586.34 489.808 586.644 492.647 584.313 495.587Z"
        fill="#809DF9" />
    <path
        d="M355.8 521.845C345.256 522.352 337.754 524.683 335.929 530.665C334.205 536.646 347.689 538.066 362.187 537.559C376.786 536.951 379.117 530.259 376.988 527.117C374.15 522.453 364.924 521.338 355.8 521.845Z"
        fill="#E1ECFF" />
    <path
        d="M639.16 518.196C627.095 518.601 618.377 520.73 616.349 526.002C614.321 531.274 629.833 532.592 646.561 532.085C663.288 531.578 662.072 525.698 660.146 522.656C658.321 519.615 649.602 517.79 639.16 518.196Z"
        fill="#E1ECFF" />
    <path
        d="M683.26 538.167C665.417 538.978 645.546 543.135 649.703 551.854C653.86 560.674 669.574 563.411 694.209 562.499C718.946 561.586 720.568 552.766 717.831 547.494C715.094 542.222 698.67 537.457 683.26 538.167Z"
        fill="#E1ECFF" />
    <path
        d="M456.876 229.259V235.849C456.876 236.457 456.775 237.066 456.775 237.573C455.964 243.453 450.793 248.015 444.711 248.015H259.994C253.81 248.015 248.741 243.453 247.93 237.573C247.829 236.964 247.829 236.457 247.829 235.849V229.259C247.829 222.467 253.303 216.992 259.994 216.992H444.609C451.402 216.992 456.876 222.467 456.876 229.259Z"
        fill="#E1ECFF" />
    <path
        d="M502.194 352.742C502.194 433.745 436.6 499.339 355.597 499.339C274.594 499.339 209 433.745 209 352.742C209 330.641 213.866 309.756 222.585 291.001C231.101 272.752 243.267 256.531 258.068 243.352H453.126C480.904 268.089 499.254 303.268 501.89 342.705C502.093 346.051 502.194 349.396 502.194 352.742Z"
        fill="#E1ECFF" />
    <path
        d="M456.674 237.573C455.863 243.453 450.692 248.015 444.609 248.015H259.995C253.81 248.015 248.741 243.453 247.93 237.573H456.674Z"
        fill="#C5DFFF" />
    <path
        d="M502.194 352.742C502.194 421.985 454.14 480.076 389.56 495.385C378.712 498.021 367.357 499.339 355.699 499.339C274.695 499.339 209.102 433.745 209.102 352.742C209.102 330.64 213.968 309.756 222.687 291L243.47 294.853L501.89 342.705C501.89 342.908 501.89 343.009 501.89 343.212C502.093 346.355 502.194 349.599 502.194 352.742Z"
        fill="#E1ECFF" />
    <path
        d="M501.89 343.212C485.365 347.672 445.015 343.82 361.68 329.221C225.018 305.194 222.687 291 222.687 291L243.47 294.853L501.89 342.705C501.89 342.908 501.89 343.009 501.89 343.212Z"
        fill="#B2C2F9" />
    <path
        d="M389.56 495.385C378.712 498.021 367.357 499.339 355.699 499.339C274.695 499.339 209.102 433.745 209.102 352.742C209.102 330.64 213.968 309.756 222.687 291L243.47 294.853C237.792 320.198 231.304 373.119 258.474 423.708C287.064 476.933 344.547 489.707 389.56 495.385Z"
        fill="#B2C2F9" />
    <path
        d="M266.584 255.923C265.266 255.618 263.847 256.024 262.833 257.038C260.096 259.775 254.317 265.655 250.668 271.434C247.626 276.3 245.598 282.788 244.382 287.046C243.774 289.48 245.396 291.913 247.93 292.116L248.741 292.217C250.668 292.42 252.492 291.304 253.101 289.48C254.216 286.134 256.345 280.558 259.488 275.084C262.022 270.521 265.773 265.959 268.815 262.614C270.842 260.383 269.727 256.632 266.584 255.923Z"
        fill="#C5DFFF" />
    <path
        d="M484.351 332.567C486.074 330.945 486.784 328.613 486.378 326.281C485.162 319.793 482.323 306.309 477.761 295.765C473.908 286.945 466.812 277.922 461.844 272.245C459.107 269.102 454.139 269.102 451.402 272.346L450.591 273.36C448.462 275.793 448.36 279.443 450.287 281.978C453.835 286.742 459.614 294.954 464.378 304.484C468.231 312.29 471.07 321.82 472.894 329.221C474.111 334.392 480.498 336.216 484.351 332.567Z"
        fill="white" />
    <path
        d="M404.058 464.058C401.827 464.058 399.8 463.957 399.394 463.957C398.279 463.855 397.468 462.943 397.468 461.827C397.468 460.712 398.482 459.8 399.597 459.901C402.334 460.104 407.504 460.205 409.329 459.597C409.633 459.496 410.039 458.786 410.445 457.975C411.458 455.947 413.08 452.805 418.048 451.284C422.407 449.966 425.348 451.588 428.085 453.007C429.403 453.717 430.619 454.325 432.039 454.731C434.573 455.339 438.223 455.035 439.44 454.832C440.555 454.629 441.569 455.441 441.771 456.454C441.974 457.57 441.163 458.583 440.149 458.786C439.946 458.786 434.979 459.597 431.126 458.583C429.301 458.076 427.679 457.265 426.26 456.556C423.827 455.238 422.002 454.325 419.265 455.136C415.919 456.15 415.007 457.975 414.094 459.8C413.385 461.219 412.574 462.841 410.546 463.45C409.025 463.957 406.389 464.058 404.058 464.058Z"
        fill="#B2C2F9" />
    <path
        d="M484.148 365.515L481.918 383.46L463.973 410.832L464.683 432.629L463.973 443.173L479.789 416.408L479.383 396.842L486.885 385.386L484.148 365.515Z"
        fill="#809DF9" />
    <path
        d="M265.773 337.027C269.749 337.027 272.971 333.805 272.971 329.829C272.971 325.854 269.749 322.631 265.773 322.631C261.798 322.631 258.575 325.854 258.575 329.829C258.575 333.805 261.798 337.027 265.773 337.027Z"
        fill="white" />
    <path
        d="M318.39 414.381C318.39 414.381 309.063 422.086 299.938 427.865C297.607 429.386 295.275 430.704 293.044 431.819C289.699 433.441 286.657 434.759 283.92 435.57C279.459 436.786 275.81 436.482 272.565 433.441C271.248 432.224 269.93 429.892 268.713 426.75C264.861 417.22 261.414 400.898 261.109 389.036C260.704 376.667 265.367 373.727 273.174 374.032C275.303 374.133 277.736 374.437 280.372 374.944C283.819 375.552 287.164 376.363 290.307 377.174C302.473 380.52 312.003 385.285 312.003 385.285C311.597 391.875 313.625 400.289 315.551 406.372C316.97 411.036 318.39 414.381 318.39 414.381Z"
        fill="#FEC272" />
    <path
        d="M318.39 414.381C318.39 414.381 309.063 422.086 299.939 427.865C297.81 425.229 295.681 421.985 293.755 418.436C291.423 413.874 289.598 408.501 288.787 402.418C287.165 389.847 288.888 381.534 290.308 377.174C302.473 380.52 312.003 385.285 312.003 385.285C311.598 391.875 313.625 400.289 315.552 406.372C316.971 411.036 318.39 414.381 318.39 414.381Z"
        fill="#FC7059" />
    <path
        d="M283.92 435.468C279.459 436.685 275.81 436.381 272.565 433.339C271.248 432.123 269.93 429.791 268.713 426.648C264.861 417.118 261.414 400.796 261.109 388.934C260.704 376.566 265.367 373.626 273.174 373.93C271.856 380.925 270.436 394.409 273.782 410.022C274.897 415.395 276.621 420.261 278.547 424.722C280.169 428.777 282.095 432.325 283.92 435.468Z"
        fill="#FC7059" />
    <path
        d="M318.39 414.381C318.39 414.381 309.063 422.086 299.938 427.865C297.606 429.386 295.275 430.704 293.044 431.819C289.699 433.441 286.657 434.759 283.92 435.57C279.459 436.786 275.81 436.482 272.565 433.441C271.247 432.224 269.929 429.892 268.713 426.75C272.058 426.344 276.215 425.634 280.574 424.316C288.077 421.985 306.528 411.644 315.551 406.372C316.97 411.036 318.39 414.381 318.39 414.381Z"
        fill="#FCAA51" />
    <path
        d="M318.39 414.381C318.39 414.381 309.063 422.086 299.939 427.865C297.81 425.229 295.681 421.985 293.754 418.436C301.459 414.483 310.178 409.515 315.551 406.372C316.971 411.036 318.39 414.381 318.39 414.381Z"
        fill="#F74F3E" />
    <path
        d="M283.92 435.468C279.459 436.685 275.81 436.381 272.565 433.339C271.247 432.123 269.929 429.791 268.713 426.648C271.552 426.344 274.897 425.736 278.445 424.823C280.169 428.777 282.095 432.325 283.92 435.468Z"
        fill="#F74F3E" />
    <path
        d="M434.369 402.621C433.964 405.663 433.051 408.501 431.936 411.036C425.651 424.925 409.632 432.123 390.877 434.759C377.799 436.584 363.403 436.178 350.223 434.151C347.384 433.745 344.647 433.238 341.91 432.731C337.855 431.92 334.205 430.906 330.961 429.893C315.956 425.128 309.366 418.538 306.629 412.151C304.5 407.487 304.399 402.723 304.399 398.971C304.297 388.935 313.118 379.101 328.021 371.396C335.016 367.746 343.329 364.603 352.656 362.17C358.334 360.649 364.315 359.331 370.398 358.318C376.886 357.202 383.375 356.898 389.559 357.304C416.628 358.926 438.425 375.35 434.369 402.621Z"
        fill="#FEC272" />
    <path
        d="M390.877 434.657C377.799 436.482 363.403 436.077 350.224 434.049C348.703 430.298 347.284 425.634 346.168 420.059C344.952 413.874 344.242 406.473 344.242 397.653C344.242 382.548 347.993 370.787 352.555 362.069C358.233 360.548 364.214 359.23 370.297 358.216C376.786 357.101 383.274 356.797 389.458 357.202C383.274 362.88 373.947 375.248 375.062 397.045C375.569 406.372 378.306 414.584 382.057 421.681C384.592 426.547 387.735 431.008 390.877 434.657Z"
        fill="#FC7059" />
    <path
        d="M330.86 429.791C315.856 425.026 309.266 418.436 306.529 412.049C304.4 407.386 304.298 402.621 304.298 398.87C304.197 388.833 313.017 378.999 327.92 371.294C324.98 378.086 322.141 388.731 323.155 403.026C323.459 407.994 324.372 412.556 325.69 416.814C327.008 421.68 328.832 426.04 330.86 429.791Z"
        fill="#FC7059" />
    <path
        d="M431.937 410.934C425.651 424.823 409.633 432.021 390.878 434.657C377.799 436.482 363.403 436.077 350.224 434.049C347.385 433.643 344.648 433.137 341.91 432.63C337.855 431.819 334.206 430.805 330.961 429.791C315.957 425.026 309.367 418.436 306.63 412.049C317.782 415.496 344.546 422.289 380.233 421.579C409.836 420.971 424.84 415.293 431.937 410.934Z"
        fill="#FCAA51" />
    <path
        d="M390.878 434.657C377.799 436.482 363.403 436.077 350.224 434.049C348.703 430.298 347.284 425.635 346.168 420.059C356.205 421.174 367.661 421.883 380.131 421.579C380.739 421.579 381.348 421.579 381.956 421.478C384.592 426.547 387.735 431.008 390.878 434.657Z"
        fill="#F74F3E" />
    <path
        d="M330.86 429.791C315.855 425.026 309.266 418.436 306.528 412.049C310.786 413.367 317.275 415.192 325.588 416.814C327.007 421.681 328.832 426.04 330.86 429.791Z"
        fill="#F74F3E" />
    <path
        d="M416.527 392.28C420.166 392.28 423.117 389.33 423.117 385.69C423.117 382.051 420.166 379.101 416.527 379.101C412.887 379.101 409.937 382.051 409.937 385.69C409.937 389.33 412.887 392.28 416.527 392.28Z"
        fill="#1C3177" />
    <path
        d="M428.591 411.238C428.084 413.671 426.664 416.51 423.319 418.335C417.54 421.579 412.877 421.984 411.052 420.666C410.748 420.464 410.545 420.159 410.241 419.855C408.821 417.828 408.315 413.468 413.688 409.008C419.973 403.736 426.766 405.358 427.982 406.98C428.591 407.69 428.895 409.413 428.591 411.238Z"
        fill="#1C3177" />
    <path
        d="M428.591 411.238C428.084 413.671 426.665 416.51 423.319 418.335C417.541 421.579 412.877 421.984 411.052 420.666C410.748 420.464 410.545 420.159 410.241 419.855C410.647 417.929 411.863 415.8 414.499 413.57C420.481 408.399 426.969 409.717 428.591 411.238Z"
        fill="#FC7059" />
    <path
        d="M383.882 426.75C383.882 426.75 383.578 444.897 368.371 449.662C351.542 454.934 343.938 442.768 346.371 428.98C346.371 428.777 346.472 428.575 346.472 428.372C349.311 414.28 362.389 409.109 362.389 409.109C366.85 413.469 380.03 423.708 383.172 426.141C383.578 426.547 383.882 426.75 383.882 426.75Z"
        fill="#FCAA51" />
    <path
        d="M383.172 426.141C381.652 431.819 377.901 439.625 368.675 442.565C354.786 446.924 347.182 439.422 346.371 428.879C346.371 428.676 346.472 428.473 346.472 428.27C349.311 414.178 362.389 409.008 362.389 409.008C366.85 413.469 380.03 423.708 383.172 426.141Z"
        fill="#FEC272" />
    <path
        d="M351.947 362.271C351.947 362.271 376.076 340.981 388.444 344.124C400.813 347.267 395.643 357.507 395.643 357.507C395.643 357.507 363.201 359.433 351.947 362.271Z"
        fill="#FEC272" />
    <path
        d="M468.13 424.519C468.13 424.519 485.364 437.8 494.894 461.422C504.424 485.044 503.005 513.43 503.005 513.43C503.005 513.43 514.663 521.642 528.046 518.601C541.428 515.559 544.267 502.278 544.267 502.278C544.267 502.278 538.589 467.91 516.387 437.8C498.949 414.178 475.53 401.708 475.53 401.708C475.53 401.708 466.305 407.791 468.13 424.519Z"
        fill="#809DF9" />
    <path
        d="M523.18 419.146L510.203 408.298C509.392 407.69 509.29 406.473 510 405.662C510.608 404.953 511.521 404.851 512.23 405.257L527.235 413.063C529.06 413.975 529.769 416.206 528.857 418.031C527.944 419.856 525.714 420.565 523.889 419.653C523.686 419.551 523.382 419.349 523.18 419.146Z"
        fill="#809DF9" />
    <path
        d="M541.327 393.598L512.231 393.699C511.217 393.699 510.406 392.888 510.406 391.874C510.406 390.962 511.115 390.151 512.028 390.049L540.82 386.298C542.848 385.994 544.673 387.414 544.977 389.441C545.281 391.469 543.862 393.294 541.834 393.598C541.733 393.598 541.53 393.598 541.327 393.598Z"
        fill="#809DF9" />
    <path
        d="M531.087 367.137L512.535 376.059C511.724 376.464 510.71 376.059 510.304 375.248C509.899 374.538 510.203 373.626 510.811 373.119L527.336 360.75C528.958 359.534 531.29 359.838 532.507 361.46C533.723 363.082 533.419 365.414 531.797 366.63C531.594 366.935 531.29 367.036 531.087 367.137Z"
        fill="#809DF9" />
    <path
        d="M519.328 302.355C526.383 302.355 532.102 296.636 532.102 289.581C532.102 282.526 526.383 276.807 519.328 276.807C512.273 276.807 506.554 282.526 506.554 289.581C506.554 296.636 512.273 302.355 519.328 302.355Z"
        fill="#FEC272" />
    <path
        d="M531.392 270.116L524.194 267.277C521.153 266.06 519.531 262.918 520.241 259.775L540.213 174.006C541.125 170.255 544.978 168.126 548.627 169.343L576.406 178.569C580.157 179.785 581.982 184.145 580.157 187.693L539.604 266.973C538.084 270.014 534.535 271.332 531.392 270.116Z"
        fill="#FEC272" />
</svg>
