<svg width="1em" height="1em" viewBox="0 0 519 518" fill="none" xmlns="http://www.w3.org/2000/svg">
    <path fill-rule="evenodd" clip-rule="evenodd"
        d="M160.107 416.216C222.551 462.055 284.802 399.464 342.468 427.649C374.035 443.078 433.333 483.481 476.672 367.58C504.38 292.652 442.474 248.048 356.99 259.72C333.001 260.048 317.438 251.314 302.558 236.455C287.678 221.597 278.237 176.654 237.575 152.874C115.209 81.3133 -73.7472 244.553 160.107 416.216Z"
        fill="#64FCD9" />
    <path
        d="M210.142 355.004H245.354V403.421L240.953 412.224H201.339C198.698 412.224 196.938 410.463 196.938 407.822V394.618C196.938 388.456 201.339 382.734 207.501 381.853L210.142 381.413V355.004Z"
        stroke="#2E2A2A" stroke-width="3" stroke-miterlimit="10" />
    <path d="M205.741 381.413H234.351C240.513 381.413 245.355 384.054 245.355 390.216V394.618"
        stroke="#2E2A2A" stroke-width="3" stroke-miterlimit="10" />
    <path
        d="M297.733 355.004H262.521V407.822C262.521 410.463 264.282 412.224 266.923 412.224H315.34C317.98 412.224 319.741 410.463 319.741 407.822V394.618C319.741 388.456 315.34 382.734 309.177 381.853L297.733 381.413V355.004Z"
        stroke="#2E2A2A" stroke-width="3" stroke-miterlimit="10" />
    <path
        d="M272.644 46.0157C272.644 49.0968 270.003 51.2976 267.362 51.2976C264.281 51.2976 262.081 48.6567 262.081 46.0157C262.081 42.9347 264.721 40.7339 267.362 40.7339C270.444 40.7339 272.644 43.3748 272.644 46.0157Z"
        fill="black" />
    <path
        d="M295.532 46.0157C295.532 49.0968 292.891 51.2976 290.25 51.2976C287.169 51.2976 284.968 48.6567 284.968 46.0157C284.968 42.9347 287.609 40.7339 290.25 40.7339C292.891 40.7339 295.532 43.3748 295.532 46.0157Z"
        fill="black" />
    <path
        d="M205.741 107.637V54.8185C205.741 25.7683 229.51 2 258.56 2C287.61 2 311.378 25.7683 311.378 54.8185V107.637C332.066 178.062 352.313 248.927 373 319.351C369.479 321.552 358.915 328.154 343.95 326.834C333.386 325.954 326.344 321.552 322.822 319.351C320.181 321.112 312.259 326.834 300.375 326.834C288.05 326.834 279.687 321.112 277.486 319.351C274.846 321.552 266.483 327.274 254.158 326.834C243.154 326.834 235.232 321.992 232.591 319.791C229.95 321.552 222.027 326.834 210.583 326.834C199.579 326.834 191.656 321.992 189.015 319.791C186.375 321.552 178.452 326.834 167.448 326.834C155.564 326.834 147.641 321.112 145 319.351C164.367 248.927 185.054 178.062 205.741 107.637Z"
        stroke="#2E2A2A" stroke-width="3" stroke-miterlimit="10" />
</svg>
