<svg width="1em" height="1em" viewBox="0 0 498 330" fill="none" xmlns="http://www.w3.org/2000/svg">
    <g filter="url(#filter0_i_854_1806)">
        <path
            d="M481.357 104.495C458.566 65.8463 407.625 41.8551 361.624 52.4382C336.564 58.2315 314.632 73.0596 289.352 77.9349C267.898 81.9898 245.592 78.6296 226.61 68.4837C198.862 53.5317 181.15 25.4497 152.595 11.8936C113.24 -6.81502 62.0029 8.74543 33.8009 40.3955C-32.9855 115.347 7.7091 223.267 81.925 277.864C119.575 305.562 141.209 315.154 195.639 326.441C241.874 336.073 320.516 322.051 365.777 308.998C411.038 295.945 452.654 269.07 476.459 230.939C500.264 192.807 504.161 143.14 481.357 104.495Z"
            fill="#F1F1FA" />
    </g>
    <mask id="mask0_854_1806" style="mask-type:alpha" maskUnits="userSpaceOnUse" x="1" y="0"
        width="497" height="326">
        <path
            d="M482.816 100.679C460.025 62.0299 409.084 38.0386 363.083 48.6217C338.023 54.4151 316.091 69.2432 290.811 74.1184C269.357 78.1733 247.051 74.8132 228.069 64.6673C200.321 49.7153 182.609 21.6333 154.054 8.07715C114.699 -10.6314 63.4619 4.92902 35.2599 36.579C-31.5266 111.531 9.16808 219.451 83.384 274.048C121.034 301.745 142.668 311.338 197.098 322.625C243.333 332.257 321.975 318.235 367.236 305.181C412.497 292.128 454.113 265.254 477.918 227.123C501.723 188.991 505.62 139.324 482.816 100.679Z"
            fill="#F1F1FA" />
    </mask>
    <g mask="url(#mask0_854_1806)">
        <path
            d="M356.082 264.842L361.493 266.897L44.5003 348.737C-49.0464 339.493 -227.851 310.184 -194.698 266.897C-153.256 212.788 -106.725 180.322 2.33156 180.322C133.581 180.322 151.079 186.969 356.082 264.842Z"
            fill="#BBBBD6" />
        <path
            d="M392.33 227.598C449.304 227.598 495.2 239.345 543.469 295.88L389.165 361.96C287.35 351.925 142.594 362.694 178.678 315.704C223.782 256.966 273.634 227.598 392.33 227.598Z"
            fill="#BBBBD6" stroke="#F1F1FA" stroke-width="3.98616" />
        <path
            d="M173.072 149.258C173.072 149.778 172.906 150.286 172.595 150.718C172.285 151.149 171.843 151.486 171.327 151.684C170.81 151.883 170.242 151.934 169.695 151.832C169.147 151.729 168.644 151.478 168.25 151.11C167.856 150.741 167.588 150.272 167.481 149.762C167.373 149.252 167.431 148.724 167.647 148.245C167.863 147.765 168.226 147.356 168.692 147.069C169.158 146.782 169.705 146.63 170.263 146.633C170.633 146.633 171 146.701 171.341 146.833C171.683 146.965 171.993 147.159 172.254 147.402C172.515 147.646 172.721 147.936 172.862 148.254C173.002 148.573 173.073 148.914 173.072 149.258Z"
            fill="#263238" />
        <path
            d="M186.565 138.956C188.123 138.956 189.387 137.781 189.387 136.331C189.387 134.881 188.123 133.706 186.565 133.706C185.007 133.706 183.743 134.881 183.743 136.331C183.743 137.781 185.007 138.956 186.565 138.956Z"
            fill="#263238" />
        <path
            d="M148.477 181.617C148.48 182.136 148.317 182.645 148.008 183.078C147.7 183.512 147.26 183.85 146.745 184.051C146.229 184.251 145.662 184.305 145.113 184.205C144.565 184.105 144.061 183.856 143.665 183.49C143.269 183.123 142.999 182.655 142.889 182.146C142.779 181.636 142.834 181.108 143.047 180.627C143.261 180.147 143.622 179.736 144.087 179.447C144.551 179.158 145.097 179.004 145.656 179.004C146.026 179.002 146.392 179.069 146.735 179.199C147.077 179.33 147.388 179.522 147.65 179.765C147.912 180.007 148.12 180.296 148.262 180.614C148.404 180.932 148.477 181.272 148.477 181.617Z"
            fill="#263238" />
        <path
            d="M3.87934 294.334L3.96063 294.39C10.979 299.222 20.1918 302.76 31.9708 305.17C31.9709 305.17 31.9709 305.17 31.971 305.17L31.9309 305.366C37.6107 306.523 43.4081 307.107 49.2224 307.108C54.6732 307.111 60.1111 306.615 65.4574 305.627L3.87934 294.334ZM3.87934 294.334L3.78546 294.364M3.87934 294.334L3.78546 294.364M3.78546 294.364C-4.99696 297.216 -14.2055 298.77 -23.5053 298.97L-23.506 298.97M3.78546 294.364L-23.506 298.97M-23.506 298.97C-53.7716 299.728 -81.1746 290.934 -114.789 265.635C-116.371 262.488 -117.898 259.171 -119.371 255.683M-23.506 298.97L-119.371 255.683M-119.371 255.683C-87.113 279.822 -52.2431 293.844 -23.6701 293.175L-23.6699 293.175C-16.326 292.995 -9.03924 291.918 -1.99706 289.97L-1.66038 289.877L-1.91111 289.634C-9.69124 282.087 -13.6186 272.226 -13.5653 260.231V260.23C-13.5653 253.662 -12.0485 248.904 -9.91427 245.458C-7.77975 242.011 -5.02045 239.866 -2.51815 238.536L-2.51785 238.536C4.56482 234.755 14.2816 235.263 22.8221 239.891M22.8221 239.891C22.8221 239.891 22.822 239.891 22.822 239.891L22.9174 239.715L22.8221 239.891Z"
            fill="#302EA7" stroke="black" stroke-width="0.4" />
        <path
            d="M9.16965 297.764C8.26954 297.529 7.42233 297.146 6.66887 296.631C4.76672 295.514 2.95636 294.266 1.25273 292.899C-0.478699 291.57 -2.09308 290.114 -3.57499 288.545C-4.24186 287.929 -4.77331 287.198 -5.13965 286.393C-5.05941 286.393 -4.43088 287.139 -3.22729 288.259C-2.02371 289.378 -0.311937 290.871 1.66729 292.426C3.64652 293.982 5.53213 295.325 6.92294 296.233C7.70988 296.693 8.46068 297.205 9.16965 297.764Z"
            fill="#263238" />
        <path
            d="M16.1767 294.131C15.134 294.077 14.1123 293.836 13.1678 293.422C10.8497 292.534 8.6864 291.331 6.74863 289.851C4.80237 288.389 3.04739 286.718 1.51971 284.875C0.836181 284.132 0.285322 283.292 -0.111816 282.387C-0.0315773 282.387 0.637089 283.233 1.88079 284.564C3.50559 286.295 5.29603 287.886 7.23007 289.316C9.12873 290.762 11.2076 291.99 13.4218 292.974C15.0534 293.77 16.2035 294.031 16.1767 294.131Z"
            fill="#263238" />
        <path
            d="M157.211 253.697C156.669 254.665 156.014 255.574 155.259 256.409C151.824 260.587 147.864 264.366 143.463 267.668C142.59 268.394 141.629 269.024 140.602 269.547C141.387 268.769 142.231 268.046 143.129 267.382C144.734 266.051 146.914 264.173 149.214 261.995C151.514 259.818 153.467 257.716 154.857 256.185C155.576 255.304 156.362 254.472 157.211 253.697Z"
            fill="white" />
        <path
            d="M212.241 185.622L200.352 128.767C200.087 127.688 199.38 126.746 198.382 126.142C197.384 125.539 196.173 125.319 195.005 125.531C193.836 125.742 192.802 126.368 192.12 127.276C191.439 128.184 191.163 129.303 191.352 130.397L191.9 132.985L167.307 138.608C164.699 139.203 162.288 140.384 160.285 142.047C158.282 143.711 156.749 145.807 155.82 148.15L140.989 151.546C138.521 152.112 136.395 153.565 135.078 155.588C133.762 157.61 133.362 160.036 133.968 162.333L135.305 167.309L120.795 170.643C119.834 170.864 118.928 171.258 118.131 171.805C117.333 172.351 116.659 173.037 116.147 173.826C115.635 174.614 115.294 175.489 115.145 176.4C114.996 177.311 115.042 178.24 115.279 179.134C115.516 180.029 115.94 180.871 116.527 181.613C117.114 182.355 117.852 182.982 118.7 183.459C119.548 183.935 120.488 184.252 121.467 184.39C122.446 184.529 123.445 184.487 124.406 184.266L138.929 180.944L139.959 184.838C140.567 187.134 142.129 189.112 144.303 190.337C146.477 191.561 149.085 191.933 151.554 191.37L166.652 187.911V187.799C168.63 189.373 170.983 190.487 173.515 191.047C176.048 191.607 178.687 191.599 181.215 191.022L203.04 186.045L203.294 187.289C203.56 188.369 204.267 189.31 205.264 189.914C206.262 190.518 207.474 190.737 208.642 190.526C209.811 190.314 210.845 189.688 211.527 188.78C212.208 187.872 212.484 186.753 212.295 185.659L212.241 185.622Z"
            fill="#302EA7" />
        <path
            d="M212.241 185.622C212.334 185.934 212.375 186.257 212.362 186.58C212.344 187.543 211.976 188.473 211.319 189.217C210.777 189.819 210.072 190.275 209.277 190.538C208.483 190.8 207.626 190.86 206.798 190.71C205.988 190.55 205.238 190.193 204.625 189.675C204.012 189.157 203.557 188.497 203.308 187.762C203.134 187.214 203.054 186.655 202.92 186.082L203.094 186.182L187.046 189.914L182.245 191.034C180.546 191.488 178.785 191.714 177.016 191.706C173.145 191.637 169.419 190.317 166.478 187.973L166.879 187.737V187.837L166.946 188.073H166.692C161.597 189.23 156.261 190.561 150.524 191.743C148.994 191.925 147.439 191.773 145.983 191.298C144.528 190.823 143.211 190.038 142.139 189.006C141.027 187.941 140.214 186.638 139.772 185.211C139.357 183.793 139.01 182.375 138.622 180.944L138.983 181.156L126.733 184.03C125.677 184.241 124.674 184.54 123.537 184.701C122.088 184.866 120.619 184.65 119.295 184.079C117.971 183.509 116.845 182.606 116.043 181.472C115.241 180.337 114.795 179.018 114.756 177.661C114.717 176.304 115.085 174.963 115.821 173.791C116.44 172.841 117.274 172.027 118.265 171.407C119.255 170.786 120.379 170.373 121.558 170.195L135.225 167.073L134.984 167.433C134.717 166.401 134.436 165.331 134.142 164.249C133.796 163.137 133.55 162.001 133.406 160.852C133.223 158.481 134.033 156.136 135.666 154.308C136.465 153.41 137.441 152.663 138.542 152.106C139.638 151.583 140.809 151.206 142.019 150.987L155.74 147.851L155.526 148.038C156.834 144.782 159.266 142.022 162.44 140.188C163.988 139.311 165.676 138.668 167.441 138.284L172.523 137.115L191.834 132.723L191.62 133.034C191.473 132.362 191.339 131.678 191.192 131.006C191.001 130.32 190.951 129.607 191.045 128.904C191.165 128.208 191.458 127.548 191.901 126.977C192.345 126.406 192.925 125.939 193.597 125.613C194.269 125.288 195.014 125.114 195.771 125.104C196.528 125.094 197.277 125.249 197.959 125.557C198.626 125.841 199.214 126.263 199.677 126.792C200.141 127.32 200.468 127.941 200.633 128.605L203.562 142.676C205.381 151.509 206.972 159.222 208.283 165.605C209.593 171.987 210.596 176.963 211.305 180.409C211.64 182.101 211.894 183.408 212.067 184.316C212.148 184.751 212.215 185.075 212.255 185.323C212.267 185.439 212.267 185.556 212.255 185.672C212.21 185.564 212.178 185.451 212.161 185.336C212.161 185.087 212.027 184.764 211.934 184.341L211.064 180.434C210.329 177 209.259 171.999 207.895 165.667C206.531 159.334 204.913 151.584 203.041 142.763C202.104 138.351 201.11 133.669 200.058 128.717C199.911 128.131 199.623 127.583 199.215 127.116C198.807 126.648 198.291 126.273 197.705 126.018C197.1 125.75 196.437 125.618 195.768 125.633C195.1 125.647 194.444 125.807 193.853 126.099C193.263 126.392 192.755 126.81 192.369 127.318C191.983 127.827 191.731 128.413 191.633 129.028C191.539 129.673 191.584 130.329 191.767 130.957C191.914 131.628 192.061 132.3 192.195 132.985V133.233L191.927 133.296L172.63 137.737C169.3 138.595 165.716 138.981 162.734 140.735C159.667 142.499 157.316 145.159 156.047 148.299L155.98 148.449H155.82L142.099 151.596C140.945 151.8 139.828 152.156 138.782 152.654C137.761 153.177 136.854 153.873 136.108 154.706C134.579 156.411 133.821 158.601 133.995 160.815C134.132 161.931 134.374 163.034 134.717 164.112C134.998 165.207 135.292 166.276 135.559 167.309L135.64 167.595L135.319 167.67L121.732 170.792C120.632 170.941 119.582 171.315 118.657 171.888C117.732 172.46 116.955 173.216 116.382 174.102C115.722 175.175 115.395 176.399 115.438 177.635C115.481 178.872 115.892 180.073 116.625 181.105C117.359 182.137 118.386 182.959 119.592 183.48C120.798 184 122.136 184.199 123.457 184.054C124.473 183.93 125.543 183.619 126.586 183.395L138.823 180.608L139.117 180.546L139.184 180.807C139.571 182.238 139.919 183.681 140.32 185.062C140.734 186.404 141.497 187.63 142.54 188.633C143.548 189.606 144.786 190.348 146.156 190.799C147.525 191.25 148.989 191.399 150.43 191.233C156.061 190.063 161.49 188.745 166.558 187.613L166.385 187.899V187.799L166.197 187.09L166.786 187.563C169.64 189.838 173.258 191.119 177.016 191.183C178.744 191.197 180.464 190.979 182.125 190.536L186.926 189.454L202.974 185.834H203.121V185.97C203.254 186.543 203.335 187.127 203.495 187.637C203.656 188.14 203.919 188.609 204.271 189.018C204.924 189.758 205.822 190.274 206.825 190.486C207.467 190.609 208.129 190.601 208.767 190.463C209.405 190.325 210.003 190.061 210.52 189.687C211.037 189.313 211.461 188.84 211.763 188.299C212.065 187.759 212.237 187.164 212.268 186.555C212.276 186.244 212.267 185.932 212.241 185.622Z"
            fill="#263238" />
        <path
            d="M203.521 185.921C203.347 185.921 200.486 174.152 197.129 159.571C193.772 144.99 191.178 133.121 191.365 133.084C191.552 133.047 194.401 144.841 197.771 159.434C201.141 174.027 203.708 185.883 203.521 185.921Z"
            fill="#263238" />
        <path
            d="M166.598 187.762C166.424 187.762 163.923 178.941 160.901 167.981C157.879 157.02 155.672 148.075 155.846 148.075C156.02 148.075 158.521 156.896 161.543 167.881C164.565 178.866 166.772 187.762 166.598 187.762Z"
            fill="#263238" />
        <path
            d="M138.903 180.944C137.922 178.787 137.208 176.533 136.776 174.226C136.136 171.967 135.645 169.673 135.305 167.358C136.279 169.521 136.988 171.779 137.418 174.089C138.059 176.344 138.555 178.633 138.903 180.944Z"
            fill="#263238" />
        <path
            d="M152.089 151.423C152.089 151.51 150.658 151.709 148.358 152.157C147.208 152.381 145.844 152.667 144.346 153.053C142.735 153.438 141.181 154.006 139.719 154.745C138.234 155.372 137.063 156.502 136.443 157.905C136.142 159.131 136.115 160.401 136.362 161.637C136.656 163.789 137.044 165.108 136.951 165.133C136.407 164.047 136.05 162.888 135.894 161.699C135.59 160.404 135.59 159.063 135.894 157.768C136.133 156.984 136.595 156.275 137.232 155.715C137.885 155.132 138.618 154.63 139.411 154.222C140.916 153.45 142.527 152.873 144.199 152.505C145.724 152.145 147.114 151.908 148.211 151.734C149.483 151.471 150.787 151.367 152.089 151.423Z"
            fill="white" />
        <path
            d="M187.26 136.332C186.859 136.512 186.431 136.634 185.99 136.693C185.174 136.88 183.97 137.141 182.486 137.439L170.905 139.704C168.806 140.11 166.774 140.771 164.86 141.669C163.309 142.42 161.943 143.462 160.848 144.73C159.869 145.928 159.189 147.313 158.855 148.785C158.786 148.369 158.818 147.944 158.949 147.541C159.243 146.43 159.776 145.385 160.514 144.468C161.601 143.111 162.993 141.991 164.593 141.184C166.539 140.22 168.624 139.52 170.784 139.106C175.331 138.198 179.437 137.526 182.432 137.016C183.917 136.768 185.107 136.581 185.976 136.457C186.398 136.371 186.829 136.33 187.26 136.332Z"
            fill="white" />
        <path
            d="M132.765 170.456C131.989 170.946 131.108 171.273 130.184 171.414C128.512 171.837 126.172 172.012 123.644 172.509C122.477 172.73 121.347 173.098 120.287 173.604C119.432 174.018 118.658 174.565 118.001 175.221C117.433 175.874 116.944 176.584 116.543 177.336C116.602 176.446 116.989 175.602 117.64 174.948C118.289 174.198 119.088 173.573 119.993 173.106C121.085 172.525 122.267 172.105 123.497 171.862C126.078 171.352 128.432 171.253 130.077 170.942C131.722 170.631 132.725 170.344 132.765 170.456Z"
            fill="white" />
        <path
            d="M197.277 126.652C197.277 126.752 196.782 126.739 196.074 126.914C195.17 127.142 194.357 127.608 193.733 128.257C193.132 128.932 192.764 129.76 192.677 130.633C192.597 131.305 192.677 131.753 192.583 131.766C192.49 131.778 192.249 131.38 192.209 130.621C192.164 129.614 192.526 128.629 193.225 127.859C193.936 127.102 194.921 126.615 195.993 126.491C196.809 126.404 197.291 126.578 197.277 126.652Z"
            fill="white" />
        <path
            d="M614.408 307.166H614.407C611.754 307.173 609.114 306.819 606.571 306.116C593.913 302.589 587.953 296.591 585.268 289.799C582.584 283.008 583.156 275.392 583.67 268.546L583.675 268.478C584.169 262.099 584.433 256.855 583.137 252.711C581.833 248.539 578.957 245.499 573.244 243.504L573.244 243.504C565.72 240.882 560.383 240.835 555.745 242.431C551.13 244.019 547.23 247.227 542.575 251.055L542.547 251.078L542.674 251.232L542.547 251.078L542.536 251.087C536.975 255.663 530.762 260.777 521.758 264.177C512.751 267.578 500.937 269.269 484.181 266.959C466.832 264.562 438.781 256.03 404.426 228.955L404.425 228.955C392.232 219.414 380.955 208.903 370.723 197.541L375.588 193.902C376.974 195.475 389.657 209.687 408.826 224.732C428.942 240.521 456.224 257.246 485.102 261.221C500.373 263.327 511.036 261.903 519.217 258.847C527.385 255.796 533.064 251.126 538.366 246.765L538.388 246.746L538.261 246.592L538.388 246.746C543.154 242.823 547.754 239.038 553.495 237.038C559.226 235.041 566.113 234.818 575.453 238.072C583.674 240.945 587.507 245.694 589.184 251.182C590.867 256.691 590.385 262.959 589.923 268.883L589.921 268.913C589.387 275.812 588.886 282.303 591.077 287.774C593.28 293.278 598.188 297.713 608.376 300.554L608.43 300.361L608.376 300.554C614.15 302.162 620.365 301.235 626.706 298.643C633.047 296.051 639.527 291.79 645.845 286.708C658.46 276.56 670.455 263.112 679.415 253.067L679.457 253.02C679.457 253.02 679.457 253.02 679.457 253.02C680.312 252.064 681.132 251.143 681.92 250.259C686.984 244.571 690.695 240.404 693.74 238.059L698.471 241.571C697.585 242.553 696.163 244.042 694.419 245.869C693.92 246.392 693.394 246.942 692.847 247.516C690.283 250.208 687.252 253.417 684.281 256.722L684.281 256.723C675.145 266.982 663.895 279.598 651.809 289.65C639.716 299.707 626.825 307.166 614.408 307.166Z"
            fill="#302EA7" stroke="black" stroke-width="0.4" />
        <path
            d="M520.141 258.385C520.141 258.385 519.873 258.621 519.338 258.933C518.588 259.395 517.807 259.81 516.998 260.177C514.325 261.393 511.499 262.296 508.586 262.864C505.676 263.421 502.701 263.634 499.733 263.498C498.837 263.455 497.945 263.367 497.059 263.237C496.728 263.211 496.404 263.14 496.096 263.026C496.096 262.926 497.513 263.026 499.76 263.026C505.628 263.053 511.437 261.934 516.811 259.741C518.857 258.87 520.087 258.236 520.141 258.385Z"
            fill="white" />
        <path
            d="M376.326 198.88C374.955 200.283 373.04 201.123 371.004 201.214C368.968 201.305 366.976 200.64 365.467 199.365L353.725 189.412L364.076 178.825L375.804 188.778C377.313 190.053 378.215 191.834 378.313 193.729C378.411 195.623 377.696 197.476 376.326 198.88Z"
            fill="#302EA7" />
        <path
            d="M376.326 198.88C376.72 198.344 377.081 197.787 377.409 197.213C378.235 195.59 378.364 193.734 377.77 192.025C377.368 190.843 376.634 189.783 375.644 188.952L372.1 186.004C369.599 183.889 366.817 181.563 363.862 179.087H364.317L359.141 184.387L353.966 189.674V189.251L362.15 196.181L365.654 199.179C366.633 200.014 367.833 200.594 369.131 200.858C371.019 201.243 372.994 200.945 374.654 200.025C375.24 199.666 375.802 199.276 376.339 198.855C375.911 199.389 375.38 199.845 374.774 200.199C373.088 201.233 371.03 201.604 369.051 201.232C367.664 200.98 366.376 200.387 365.32 199.515C364.21 198.594 363.033 197.599 361.776 196.566L353.524 189.637L353.284 189.438L353.511 189.214L358.673 183.914L363.848 178.639L364.062 178.415L364.303 178.614L372.488 185.593L375.991 188.592C377.03 189.486 377.788 190.625 378.185 191.889C378.766 193.683 378.564 195.618 377.623 197.275C377.307 197.884 376.866 198.429 376.326 198.88Z"
            fill="#263238" />
        <path
            d="M317.002 139.114L296.755 123.538C296.377 123.247 296.065 122.89 295.835 122.487C295.606 122.084 295.464 121.642 295.418 121.188C295.372 120.734 295.423 120.276 295.567 119.84C295.712 119.405 295.947 118.999 296.26 118.648C296.573 118.297 296.956 118.006 297.39 117.793C297.823 117.579 298.297 117.448 298.785 117.405C299.273 117.362 299.766 117.409 300.234 117.544C300.703 117.678 301.138 117.897 301.516 118.188L321.749 133.764L317.002 139.114Z"
            fill="#302EA7" />
        <path
            d="M297.958 161.869L277.738 146.293C277.359 146.003 277.046 145.646 276.815 145.244C276.584 144.841 276.441 144.4 276.394 143.946C276.347 143.492 276.397 143.034 276.54 142.597C276.683 142.161 276.918 141.755 277.23 141.403C277.541 141.051 277.925 140.759 278.358 140.544C278.791 140.33 279.266 140.198 279.754 140.155C280.243 140.112 280.736 140.16 281.205 140.295C281.673 140.43 282.109 140.651 282.485 140.943L302.732 156.507L297.958 161.869Z"
            fill="#302EA7" />
        <g opacity="0.6">
            <path opacity="0.6"
                d="M317.002 139.113L296.755 123.537C296.378 123.246 296.065 122.889 295.836 122.486C295.606 122.083 295.465 121.641 295.419 121.187C295.373 120.733 295.424 120.275 295.568 119.839C295.712 119.404 295.948 118.998 296.261 118.647C296.573 118.296 296.957 118.005 297.39 117.792C297.823 117.579 298.298 117.447 298.786 117.404C299.274 117.361 299.766 117.408 300.235 117.543C300.703 117.677 301.139 117.896 301.516 118.187L321.75 133.763L317.002 139.113Z"
                fill="white" />
        </g>
        <g opacity="0.6">
            <path opacity="0.6"
                d="M297.958 161.869L277.738 146.293C277.359 146.003 277.046 145.646 276.815 145.244C276.584 144.841 276.441 144.4 276.394 143.946C276.347 143.492 276.397 143.034 276.54 142.597C276.683 142.161 276.918 141.755 277.23 141.403C277.541 141.051 277.925 140.759 278.358 140.544C278.791 140.33 279.266 140.198 279.754 140.155C280.243 140.112 280.736 140.16 281.205 140.295C281.673 140.43 282.109 140.651 282.485 140.943L302.732 156.507L297.958 161.869Z"
                fill="white" />
        </g>
        <path
            d="M317.002 139.114C317.094 138.971 317.197 138.834 317.309 138.704L318.219 137.609L321.602 133.64V133.901L312.094 126.711L306.143 122.157L302.947 119.669L301.302 118.425C300.8 118.024 300.18 117.772 299.523 117.703C298.968 117.637 298.403 117.7 297.88 117.887C297.357 118.074 296.893 118.378 296.527 118.773C296.174 119.159 295.924 119.617 295.799 120.111C295.673 120.604 295.675 121.118 295.805 121.61C295.933 122.073 296.181 122.5 296.527 122.854C296.905 123.222 297.312 123.563 297.744 123.874L300.259 125.815L308.924 132.595L314.795 137.248L316.4 138.492C316.604 138.645 316.797 138.811 316.975 138.99C316.775 138.883 316.587 138.758 316.413 138.617L314.809 137.372C313.324 136.265 311.291 134.76 308.831 132.906L299.924 126.176L297.357 124.222C296.888 123.887 296.441 123.525 296.019 123.14C295.453 122.571 295.092 121.851 294.986 121.082C294.88 120.313 295.033 119.532 295.426 118.848C295.819 118.164 296.431 117.611 297.177 117.265C297.923 116.92 298.766 116.799 299.59 116.92C300.372 117.013 301.109 117.311 301.716 117.778L303.348 119.022L306.531 121.51L312.455 126.101L321.816 133.429L321.977 133.553L321.843 133.69L318.219 137.621L317.256 138.617C317.194 138.792 317.109 138.959 317.002 139.114Z"
            fill="#263238" />
        <path
            d="M297.958 161.869C298.049 161.722 298.157 161.584 298.279 161.458C298.52 161.16 298.814 160.799 299.189 160.364L302.572 156.395V156.656L293.064 149.453L287.113 144.912L283.917 142.424L282.272 141.18C281.76 140.786 281.138 140.536 280.48 140.458C279.923 140.397 279.359 140.463 278.837 140.652C278.315 140.841 277.85 141.146 277.484 141.541C277.129 141.925 276.879 142.384 276.756 142.878C276.632 143.372 276.639 143.886 276.775 144.377C276.902 144.838 277.145 145.265 277.484 145.621C277.867 145.985 278.278 146.322 278.714 146.629L281.215 148.582L289.894 155.362L295.765 160.015L297.37 161.259C297.576 161.406 297.765 161.572 297.932 161.757C297.932 161.757 297.744 161.645 297.383 161.384L295.765 160.202L289.787 155.736L280.894 149.005L278.327 147.039C277.851 146.711 277.404 146.349 276.989 145.957C276.573 145.516 276.279 144.986 276.133 144.414C275.971 143.831 275.962 143.219 276.109 142.632C276.256 142.045 276.553 141.5 276.976 141.043C277.418 140.582 277.974 140.227 278.596 140.01C279.218 139.794 279.888 139.721 280.547 139.799C281.328 139.893 282.065 140.191 282.673 140.657C283.221 141.093 283.769 141.503 284.318 141.901L287.501 144.39L293.425 148.968L302.786 156.308L302.933 156.432L302.813 156.569C301.288 158.199 300.071 159.518 299.175 160.488L298.226 161.496C298.092 161.77 297.958 161.882 297.958 161.869Z"
            fill="#263238" />
        <path
            d="M363.005 158.858L363.54 158.261C364.67 156.994 365.256 155.383 365.185 153.739C365.113 152.094 364.389 150.532 363.152 149.355C361.915 148.178 360.253 147.469 358.487 147.365C356.721 147.262 354.977 147.77 353.59 148.793L323.955 125.827L290.054 163.56L320.385 185.954C319.444 187.321 319.074 188.961 319.342 190.565C319.61 192.169 320.5 193.626 321.842 194.663C323.28 195.769 325.127 196.308 326.986 196.163C328.846 196.019 330.571 195.204 331.792 193.891C336.073 196.896 341.444 198.23 346.765 197.61C352.087 196.989 356.938 194.464 360.29 190.57L365.158 184.922C368.407 181.129 369.991 176.331 369.592 171.496C369.192 166.66 366.839 162.144 363.005 158.858Z"
            fill="#302EA7" />
        <path
            d="M363.005 158.859L363.259 159.07L363.968 159.705C364.36 160.042 364.723 160.408 365.051 160.799L365.707 161.546L366.375 162.454C367.557 164.04 368.46 165.792 369.05 167.642C369.94 170.435 370.134 173.381 369.617 176.254C369.101 179.128 367.887 181.854 366.068 184.226C364.984 185.656 363.727 187.012 362.497 188.493C361.257 190.056 359.884 191.525 358.391 192.885C355 195.836 350.636 197.633 346.008 197.985C340.884 198.4 335.776 197.044 331.658 194.178H332.073C330.822 195.505 329.079 196.345 327.192 196.53C326.211 196.626 325.22 196.539 324.276 196.274C323.333 196.009 322.455 195.571 321.695 194.987C320.293 193.902 319.364 192.378 319.083 190.702C318.802 189.025 319.189 187.311 320.171 185.88L320.238 186.266L296.714 168.811L289.854 163.735L289.586 163.549L289.8 163.3C302.157 149.615 313.698 136.751 323.742 125.604L323.929 125.393L324.143 125.567L353.711 148.595H353.483C354.564 147.804 355.864 147.313 357.232 147.18C358.6 147.046 359.981 147.276 361.215 147.842C362.448 148.408 363.485 149.287 364.204 150.378C364.923 151.469 365.296 152.727 365.279 154.007C365.253 155.349 364.786 156.651 363.941 157.739C363.727 158.013 363.495 158.275 363.246 158.523L362.992 158.784C362.992 158.784 363.313 158.411 363.861 157.689C364.649 156.583 365.068 155.284 365.065 153.957C365.06 152.911 364.788 151.88 364.269 150.952C363.75 150.024 363.001 149.224 362.082 148.62C360.919 147.822 359.515 147.387 358.07 147.376C356.465 147.358 354.902 147.854 353.644 148.781L353.524 148.869L353.403 148.781L323.715 125.89H324.116L290.309 163.711V163.275L297.156 168.351L320.626 185.768L320.853 185.93L320.692 186.154C319.785 187.458 319.42 189.026 319.666 190.563C319.912 192.1 320.753 193.5 322.03 194.502C323.408 195.562 325.176 196.078 326.958 195.941C328.74 195.804 330.393 195.024 331.565 193.768L331.752 193.581L331.966 193.731C335.783 196.381 340.477 197.704 345.234 197.47C349.99 197.236 354.508 195.46 358.004 192.449C359.459 191.104 360.8 189.657 362.016 188.12C363.259 186.652 364.543 185.283 365.613 183.89C368.004 180.78 369.336 177.074 369.436 173.252C369.536 169.43 368.4 165.668 366.175 162.454C365.947 162.131 365.733 161.82 365.519 161.533L364.877 160.787C364.557 160.385 364.209 160.002 363.834 159.642L363.152 158.983C363.045 158.9 362.996 158.859 363.005 158.859Z"
            fill="#263238" />
        <path d="M329.078 159.582L308.167 143.495L304.784 147.301L325.694 163.388L329.078 159.582Z"
            fill="#E0E0E0" />
        <path
            d="M363.005 158.857C362.676 159.375 362.3 159.867 361.882 160.325C361.133 161.259 360.023 162.577 358.632 164.195C355.864 167.442 351.945 171.858 347.572 176.698C343.199 181.537 339.308 185.829 336.352 189.076L332.955 192.809C332.554 193.285 332.106 193.727 331.618 194.127C331.947 193.609 332.323 193.118 332.742 192.659C333.49 191.726 334.6 190.408 335.991 188.79C338.759 185.543 342.678 181.127 347.051 176.349L358.271 163.908L361.681 160.176C362.077 159.699 362.52 159.257 363.005 158.857Z"
            fill="#263238" />
        <path
            d="M353.591 148.742C353.241 149.289 352.838 149.806 352.387 150.285C351.571 151.255 350.368 152.649 348.883 154.353C345.888 157.762 341.688 162.415 337.008 167.516C332.327 172.616 328.128 177.145 324.972 180.566C323.474 182.159 322.297 183.49 321.308 184.497C320.877 184.997 320.403 185.463 319.89 185.891C320.254 185.349 320.661 184.834 321.107 184.348C321.923 183.378 323.113 181.984 324.611 180.28C327.606 176.871 331.806 172.218 336.486 167.117L348.522 154.079L352.186 150.136C352.615 149.638 353.085 149.172 353.591 148.742Z"
            fill="#263238" />
        <path
            d="M302.45 94.2889H292.793L297.608 82.0381L282.897 100.8H292.554L287.739 113.051L302.45 94.2889Z"
            fill="#BBBBD6" />
        <path
            d="M231.874 107.952H217.343L224.588 130.559L202.453 95.937H216.983L209.738 73.3304L231.874 107.952Z"
            fill="#BBBBD6" />
    </g>
    <defs>
        <filter id="filter0_i_854_1806" x="0" y="3.81641" width="496.541" height="331.442"
            filterUnits="userSpaceOnUse" color-interpolation-filters="sRGB">
            <feFlood flood-opacity="0" result="BackgroundImageFix" />
            <feBlend mode="normal" in="SourceGraphic" in2="BackgroundImageFix" result="shape" />
            <feColorMatrix in="SourceAlpha" type="matrix"
                values="0 0 0 0 0 0 0 0 0 0 0 0 0 0 0 0 0 0 127 0" result="hardAlpha" />
            <feOffset dy="5.62608" />
            <feGaussianBlur stdDeviation="7.50145" />
            <feComposite in2="hardAlpha" operator="arithmetic" k2="-1" k3="1" />
            <feColorMatrix type="matrix" values="0 0 0 0 0 0 0 0 0 0 0 0 0 0 0 0 0 0 0.25 0" />
            <feBlend mode="normal" in2="shape" result="effect1_innerShadow_854_1806" />
        </filter>
    </defs>
</svg>
