<svg width="1em" height="1em" viewBox="0 0 452 362" fill="none" xmlns="http://www.w3.org/2000/svg">
    <rect width="452" height="362" fill="white" />
    <path fill-rule="evenodd" clip-rule="evenodd"
        d="M113.904 242.54H278.432C279.363 242.54 280.27 242.439 281.144 242.248C282.018 242.439 282.925 242.54 283.856 242.54H377.872C384.862 242.54 390.528 236.867 390.528 229.87C390.528 222.872 384.862 217.2 377.872 217.2H367.024C360.034 217.2 354.368 211.527 354.368 204.53C354.368 197.532 360.034 191.86 367.024 191.86H401.376C408.366 191.86 414.032 186.187 414.032 179.19C414.032 172.192 408.366 166.52 401.376 166.52H361.6C368.59 166.52 374.256 160.847 374.256 153.85C374.256 146.852 368.59 141.18 361.6 141.18H245.888C252.878 141.18 258.544 135.507 258.544 128.51C258.544 121.512 252.878 115.84 245.888 115.84H142.832C135.842 115.84 130.176 121.512 130.176 128.51C130.176 135.507 135.842 141.18 142.832 141.18H70.5118C63.5221 141.18 57.8558 146.852 57.8558 153.85C57.8558 160.847 63.5221 166.52 70.5118 166.52H115.712C122.702 166.52 128.368 172.192 128.368 179.19C128.368 186.187 122.702 191.86 115.712 191.86H43.3918C36.4021 191.86 30.7358 197.532 30.7358 204.53C30.7358 211.527 36.4021 217.2 43.3918 217.2H113.904C106.914 217.2 101.248 222.872 101.248 229.87C101.248 236.867 106.914 242.54 113.904 242.54ZM408.608 242.54C415.598 242.54 421.264 236.867 421.264 229.87C421.264 222.872 415.598 217.2 408.608 217.2C401.618 217.2 395.952 222.872 395.952 229.87C395.952 236.867 401.618 242.54 408.608 242.54Z"
        fill="#273D7A" />
    <path fill-rule="evenodd" clip-rule="evenodd"
        d="M166.336 253.4C144.368 253.4 126.56 235.977 126.56 214.485C126.56 192.993 144.368 175.57 166.336 175.57C167.27 175.57 168.197 175.601 169.115 175.663C168.477 172.109 168.144 168.448 168.144 164.71C168.144 130.722 195.666 103.17 229.616 103.17C256.72 103.17 279.727 120.731 287.903 145.107C289.841 144.904 291.808 144.8 293.8 144.8C324.255 144.8 348.944 169.111 348.944 199.1C348.944 227.59 326.661 251.096 298.32 253.36V253.4H196.182H166.336ZM188.025 253.4H175.433H188.025Z"
        fill="white" />
    <path
        d="M188.025 253.4H175.433M166.336 253.4C144.368 253.4 126.56 235.977 126.56 214.485C126.56 192.993 144.368 175.57 166.336 175.57C167.27 175.57 168.197 175.601 169.115 175.663C168.477 172.109 168.144 168.448 168.144 164.71C168.144 130.722 195.666 103.17 229.616 103.17C256.72 103.17 279.727 120.731 287.903 145.107C289.841 144.904 291.808 144.8 293.8 144.8C324.255 144.8 348.944 169.111 348.944 199.1C348.944 227.59 326.661 251.096 298.32 253.36V253.4H196.182H166.336Z"
        stroke="#1F64E7" stroke-width="2.5" stroke-linecap="round" />
    <path fill-rule="evenodd" clip-rule="evenodd"
        d="M210.835 116.46C210.835 174.784 263.304 222.844 330.864 229.332C322.398 239.755 309.323 246.825 294.427 247.936V247.97H173.103C158.383 247.97 133.792 241.761 133.792 214.573C133.792 187.384 152.91 181.175 173.103 181.175C173.962 181.175 174.814 181.202 175.658 181.256C175.071 178.205 174.968 175.061 174.765 171.855C173.394 150.202 182.83 122.912 210.868 114.03C210.845 114.84 210.835 115.649 210.835 116.46ZM229.826 207.712C224.332 207.712 219.879 212.118 219.879 217.553C219.879 222.988 224.332 227.394 229.826 227.394C235.32 227.394 239.774 222.988 239.774 217.553C239.774 212.118 235.32 207.712 229.826 207.712Z"
        fill="#E8F0FE" />
    <path
        d="M230.52 228.06C236.012 228.06 240.464 223.603 240.464 218.105C240.464 212.607 236.012 208.15 230.52 208.15C225.028 208.15 220.576 212.607 220.576 218.105C220.576 223.603 225.028 228.06 230.52 228.06Z"
        stroke="#1F64E7" stroke-width="2.5" />
    <path d="M202.496 197.29L215.152 187.348L202.496 177.883" stroke="#1F64E7" stroke-width="2.5"
        stroke-linecap="round" stroke-linejoin="round" />
    <path d="M258.544 197.29L245.888 187.348L258.544 177.883" stroke="#1F64E7" stroke-width="2.5"
        stroke-linecap="round" stroke-linejoin="round" />
    <path d="M247.696 121.27C259.464 124.387 268.756 133.601 271.996 145.33" stroke="#75A4FE"
        stroke-width="2.5" stroke-linecap="round" />
    <path
        d="M285.664 90.4996C288.66 90.4996 291.088 88.0686 291.088 85.0696C291.088 82.0707 288.66 79.6396 285.664 79.6396C282.669 79.6396 280.24 82.0707 280.24 85.0696C280.24 88.0686 282.669 90.4996 285.664 90.4996Z"
        stroke="#75A4FE" stroke-width="2" />
    <path
        d="M341.712 119.46C344.708 119.46 347.136 117.029 347.136 114.03C347.136 111.031 344.708 108.6 341.712 108.6C338.716 108.6 336.288 111.031 336.288 114.03C336.288 117.029 338.716 119.46 341.712 119.46Z"
        fill="#75A4FE" />
    <path d="M299.689 104.541L314.801 119.669M315.031 104.541L299.919 119.669L315.031 104.541Z"
        stroke="#75A4FE" stroke-width="2.5" stroke-linecap="round" stroke-linejoin="round" />
    <path d="M129.098 136.829L139.946 147.689M139.946 136.829L129.098 147.689L139.946 136.829Z"
        stroke="#75A4FE" stroke-width="2.5" stroke-linecap="round" stroke-linejoin="round" />
    <path
        d="M153.68 124.89C156.675 124.89 159.104 122.459 159.104 119.46C159.104 116.461 156.675 114.03 153.68 114.03C150.684 114.03 148.256 116.461 148.256 119.46C148.256 122.459 150.684 124.89 153.68 124.89Z"
        fill="#75A4FE" />
</svg>
