<svg width="1em" height="1em" viewBox="0 0 472 378" fill="none" xmlns="http://www.w3.org/2000/svg">
<rect width="472" height="378" fill="white"/>
<path fill-rule="evenodd" clip-rule="evenodd" d="M118.944 253.26H290.752C291.724 253.26 292.672 253.155 293.584 252.955C294.497 253.155 295.444 253.26 296.416 253.26H394.592C401.891 253.26 407.808 247.337 407.808 240.03C407.808 232.723 401.891 226.8 394.592 226.8H383.264C375.965 226.8 370.048 220.877 370.048 213.57C370.048 206.263 375.965 200.34 383.264 200.34H419.136C426.435 200.34 432.352 194.417 432.352 187.11C432.352 179.803 426.435 173.88 419.136 173.88H377.6C384.899 173.88 390.816 167.957 390.816 160.65C390.816 153.343 384.899 147.42 377.6 147.42H256.768C264.067 147.42 269.984 141.497 269.984 134.19C269.984 126.883 264.067 120.96 256.768 120.96H149.152C141.853 120.96 135.936 126.883 135.936 134.19C135.936 141.497 141.853 147.42 149.152 147.42H73.6322C66.3332 147.42 60.4162 153.343 60.4162 160.65C60.4162 167.957 66.3332 173.88 73.6322 173.88H120.832C128.131 173.88 134.048 179.803 134.048 187.11C134.048 194.417 128.131 200.34 120.832 200.34H45.3122C38.0132 200.34 32.0962 206.263 32.0962 213.57C32.0962 220.877 38.0132 226.8 45.3122 226.8H118.944C111.645 226.8 105.728 232.723 105.728 240.03C105.728 247.337 111.645 253.26 118.944 253.26ZM426.688 253.26C433.987 253.26 439.904 247.337 439.904 240.03C439.904 232.723 433.987 226.8 426.688 226.8C419.389 226.8 413.472 232.723 413.472 240.03C413.472 247.337 419.389 253.26 426.688 253.26Z" fill="#F3F7FF"/>
<path fill-rule="evenodd" clip-rule="evenodd" d="M173.696 264.6C150.756 264.6 132.16 246.408 132.16 223.965C132.16 201.523 150.756 183.33 173.696 183.33C174.672 183.33 175.639 183.363 176.598 183.428C175.932 179.716 175.584 175.894 175.584 171.99C175.584 136.501 204.324 107.73 239.776 107.73C268.079 107.73 292.104 126.067 300.643 151.521C302.666 151.309 304.72 151.2 306.8 151.2C338.603 151.2 364.384 176.586 364.384 207.9C364.384 237.65 341.115 262.195 311.52 264.559V264.6H204.863M196.345 264.6H183.195H196.345Z" fill="white"/>
<path d="M173.696 265.85C174.387 265.85 174.946 265.291 174.946 264.6C174.946 263.91 174.387 263.35 173.696 263.35V265.85ZM176.598 183.428L176.514 184.675L178.111 184.783L177.828 183.207L176.598 183.428ZM300.643 151.521L299.458 151.918L299.776 152.868L300.773 152.764L300.643 151.521ZM311.52 264.559L311.421 263.313L310.27 263.405V264.559H311.52ZM311.52 264.6V265.85H312.77V264.6H311.52ZM204.863 263.35C204.173 263.35 203.613 263.91 203.613 264.6C203.613 265.291 204.173 265.85 204.863 265.85V263.35ZM196.345 265.85C197.035 265.85 197.595 265.291 197.595 264.6C197.595 263.91 197.035 263.35 196.345 263.35V265.85ZM183.195 263.35C182.505 263.35 181.945 263.91 181.945 264.6C181.945 265.291 182.505 265.85 183.195 265.85V263.35ZM173.696 263.35C151.421 263.35 133.41 245.691 133.41 223.965H130.91C130.91 247.124 150.092 265.85 173.696 265.85V263.35ZM133.41 223.965C133.41 202.239 151.421 184.58 173.696 184.58V182.08C150.092 182.08 130.91 200.807 130.91 223.965H133.41ZM173.696 184.58C174.644 184.58 175.583 184.612 176.514 184.675L176.682 182.181C175.695 182.114 174.7 182.08 173.696 182.08V184.58ZM177.828 183.207C177.175 179.568 176.834 175.82 176.834 171.99H174.334C174.334 175.968 174.688 179.865 175.368 183.649L177.828 183.207ZM176.834 171.99C176.834 137.19 205.015 108.98 239.776 108.98V106.48C203.632 106.48 174.334 135.812 174.334 171.99H176.834ZM239.776 108.98C267.525 108.98 291.084 126.958 299.458 151.918L301.828 151.123C293.124 125.176 268.633 106.48 239.776 106.48V108.98ZM300.773 152.764C302.753 152.557 304.764 152.45 306.8 152.45V149.95C304.677 149.95 302.579 150.061 300.513 150.278L300.773 152.764ZM306.8 152.45C337.931 152.45 363.134 177.294 363.134 207.9H365.634C365.634 175.877 339.275 149.95 306.8 149.95V152.45ZM363.134 207.9C363.134 236.981 340.383 261 311.421 263.313L311.62 265.805C341.847 263.391 365.634 238.319 365.634 207.9H363.134ZM310.27 264.559V264.6H312.77V264.559H310.27ZM311.52 263.35H204.863V265.85H311.52V263.35ZM196.345 263.35H183.195V265.85H196.345V263.35Z" fill="#1F64E7"/>
<path fill-rule="evenodd" clip-rule="evenodd" d="M220.164 121.608C220.164 182.51 274.955 232.693 345.504 239.469C336.663 250.352 323.009 257.735 307.455 258.895V258.93H180.763C165.391 258.93 139.712 252.447 139.712 224.057C139.712 195.666 159.676 189.183 180.763 189.183C181.66 189.183 182.549 189.211 183.43 189.267C182.818 186.081 182.71 182.798 182.498 179.451C181.066 156.84 190.92 128.344 220.198 119.07C220.175 119.916 220.164 120.761 220.164 121.608Z" fill="#E8F0FE"/>
<path d="M258.656 130.41C270.945 133.666 280.648 143.286 284.031 155.534" stroke="#75A4FE" stroke-width="2.5" stroke-linecap="round"/>
<path d="M203.904 191.835C203.904 198.62 209.821 204.12 217.12 204.12C224.419 204.12 230.336 198.62 230.336 191.835" stroke="#1F64E7" stroke-width="2.5" stroke-linecap="round"/>
<path d="M258.656 191.835C258.656 198.62 264.573 204.12 271.872 204.12C279.171 204.12 285.088 198.62 285.088 191.835" stroke="#1F64E7" stroke-width="2.5" stroke-linecap="round"/>
<path d="M230.336 226.8H257.712" stroke="#1F64E7" stroke-width="2.5" stroke-linecap="round"/>
<path fill-rule="evenodd" clip-rule="evenodd" d="M130.566 113.952H108.012V118.443H123.962L106.683 139.399V143.64H130.982V139.15H113.287L130.566 117.902V113.952ZM155.888 142.839H139.485V146.105H151.085L138.519 161.346V164.43H156.19V161.164H143.322L155.888 145.712V142.839Z" fill="#75A4FE"/>
</svg>
