<svg width="1em" height="1em" viewBox="0 0 417 288" fill="none" xmlns="http://www.w3.org/2000/svg">
<g filter="url(#filter0_i_863_3688)">
<path d="M214.273 67.6924C181.658 105.866 154.478 76.262 104.003 63.797C19.7086 42.9807 0.000139742 120.843 0 182.215C-0.000139741 243.586 47.862 285.83 88.9297 285.83C152.785 285.83 165.654 234.866 198.5 234.866C239.746 234.866 292.704 300.632 357.158 285.83C416.953 272.098 437.404 103.213 392.879 39.6462C332.309 -46.8298 246.888 29.5184 214.273 67.6924Z" fill="#F1F1FA"/>
</g>
<mask id="mask0_863_3688" style="mask-type:alpha" maskUnits="userSpaceOnUse" x="0" y="0" width="417" height="288">
<path d="M214.273 67.6924C181.658 105.866 154.478 76.262 104.003 63.797C19.7086 42.9807 0.000139742 120.843 0 182.214C-0.000139741 243.586 47.862 285.83 88.9297 285.83C152.785 285.83 165.654 234.866 198.5 234.866C239.746 234.866 292.704 300.632 357.158 285.83C416.953 272.098 437.404 103.213 392.879 39.6462C332.309 -46.8298 246.888 29.5184 214.273 67.6924Z" fill="#F1F1FA"/>
</mask>
<g mask="url(#mask0_863_3688)">
<path d="M412.197 262.603L417.3 264.686L118.329 347.658C30.1001 338.286 -138.54 308.572 -107.271 264.686C-68.1856 209.829 -24.2999 176.915 78.5573 176.915C202.345 176.915 218.849 183.654 412.197 262.603Z" fill="#BBBBD6"/>
<path d="M397.121 172.8C446.493 172.8 486.264 183.771 528.092 236.571L394.378 298.286C306.15 288.914 180.71 298.971 211.978 255.086C251.064 200.228 294.264 172.8 397.121 172.8Z" fill="#BBBBD6" stroke="#F1F1FA" stroke-width="4.34928"/>
<path d="M63.2547 252.628V252.128H62.7547H50.7913C40.4538 252.128 32.043 243.717 32.043 233.38V209.971C32.043 203.926 36.9308 199.026 42.9884 199.026C49.0232 199.026 53.9337 203.937 53.9337 209.971V229.737V230.237H54.4337H62.7547H63.2547V229.737V182.661C63.2547 174.444 69.9034 167.814 78.1014 167.814C86.2876 167.814 92.9482 174.475 92.9482 182.661V210.23V210.73H93.4482H101.769H102.269V210.23V198.267C102.269 192.221 107.157 187.321 113.214 187.321C119.249 187.321 124.16 192.232 124.16 198.267V213.873C124.16 224.21 115.749 232.621 105.412 232.621H93.4482H92.9482V233.121V284.358C92.9482 286.093 91.5412 287.5 89.8058 287.5H66.3971C64.6617 287.5 63.2547 286.093 63.2547 284.358V252.628Z" fill="#302EA7" stroke="black"/>
<path fill-rule="evenodd" clip-rule="evenodd" d="M338.204 290.273C338.155 290.273 338.106 290.273 338.056 290.273C338.007 290.273 337.957 290.273 337.907 290.273C334.536 290.256 331.298 289.665 328.286 288.592C328.274 288.593 328.262 288.593 328.25 288.593L320.58 288.609H320.578C320.023 288.609 319.572 288.16 319.571 287.604C319.57 287.048 320.02 286.596 320.576 286.595L323.865 286.588C320.119 284.497 316.879 281.605 314.377 278.146L308.167 274.195C307.698 273.896 307.559 273.274 307.858 272.804C308.157 272.334 308.779 272.197 309.249 272.495L311.993 274.241C310.334 270.972 309.272 267.351 308.952 263.522C308.945 263.508 308.938 263.493 308.931 263.477L305.91 256.427C305.691 255.916 305.928 255.324 306.439 255.105C306.945 254.886 307.542 255.122 307.761 255.634L308.965 258.442C309.297 254.669 310.346 251.051 312.046 247.742C312.045 247.688 312.048 247.633 312.056 247.578L313.142 239.985C313.22 239.435 313.731 239.056 314.282 239.131C314.833 239.21 315.215 239.72 315.136 240.27L314.665 243.565C315.554 242.383 316.539 241.26 317.616 240.204C318.014 239.816 318.652 239.821 319.04 240.219C319.429 240.616 319.424 241.254 319.026 241.643C317.869 242.776 316.827 243.994 315.904 245.282L319.212 243.741C319.719 243.507 320.317 243.726 320.55 244.229C320.785 244.734 320.567 245.333 320.062 245.568L313.975 248.402C312.148 251.866 311.092 255.703 310.897 259.705L313.047 256.479C313.355 256.016 313.98 255.891 314.444 256.2C314.907 256.508 315.032 257.134 314.723 257.596L310.951 263.255C311.348 268.216 313.083 272.806 315.793 276.663C315.954 276.787 316.069 276.952 316.131 277.134C317.519 279.023 319.145 280.727 320.964 282.201C318.376 279.066 316.632 275.209 316.084 270.983C316.077 270.947 316.073 270.911 316.07 270.875C315.957 269.971 315.899 269.05 315.899 268.116C315.899 264.864 316.619 261.747 317.914 258.93V253.009C317.914 252.452 318.364 252.001 318.921 252.001C319.478 252.001 319.928 252.452 319.928 253.009V255.426C323.349 250.552 328.683 247.072 334.892 246.184C335.443 246.101 335.954 246.488 336.032 247.038C336.111 247.589 335.728 248.099 335.178 248.178C325.351 249.583 317.937 258.13 317.914 268.069L319.131 266.493C319.469 266.054 320.103 265.97 320.544 266.312C320.984 266.652 321.065 267.285 320.725 267.725L318.131 271.081C318.924 276.434 321.83 281.107 325.972 284.222C324.075 281.697 322.95 278.56 322.95 275.166C322.95 273.636 323.177 272.135 323.619 270.703L322.659 269.69C322.277 269.286 322.294 268.649 322.698 268.266C323.102 267.885 323.739 267.9 324.121 268.305L324.431 268.632C324.781 267.905 325.191 267.204 325.659 266.533C325.976 266.077 326.603 265.964 327.061 266.283C327.517 266.602 327.629 267.229 327.311 267.686C325.776 269.886 324.964 272.473 324.964 275.166C324.964 277.278 325.466 279.274 326.358 281.041L326.931 280.285C327.267 279.843 327.897 279.754 328.342 280.092C328.785 280.428 328.872 281.06 328.536 281.503L327.487 282.885C329.847 286.108 333.644 288.216 337.925 288.259C337.969 288.259 338.013 288.259 338.057 288.259C338.101 288.259 338.145 288.259 338.189 288.259C339.118 288.249 340.024 288.143 340.897 287.949C339.485 286.878 338.265 285.726 337.215 284.516L335.727 284.8C335.664 284.812 335.6 284.818 335.538 284.818C335.064 284.818 334.642 284.482 334.549 283.999C334.445 283.452 334.804 282.925 335.35 282.821L335.812 282.733C331.538 276.709 330.877 269.634 331.274 264.096C331.221 264.051 331.172 264 331.129 263.942L327.939 259.746C327.603 259.303 327.689 258.671 328.131 258.335C328.576 257.998 329.207 258.085 329.542 258.527L331.584 261.213C332.136 257.357 333.054 254.755 333.082 254.679C333.272 254.156 333.85 253.889 334.371 254.076C334.895 254.266 335.164 254.844 334.975 255.367C334.956 255.421 333.014 260.861 333.148 267.529C333.208 270.538 333.66 273.3 334.5 275.808L335.233 274.819C335.564 274.372 336.194 274.279 336.642 274.609C337.089 274.94 337.182 275.571 336.851 276.018L335.37 278.017C337.057 281.711 339.698 284.773 343.276 287.174C344.94 286.448 346.425 285.386 347.644 284.074L346.416 282.283C346.102 281.824 346.219 281.197 346.678 280.883C347.137 280.567 347.764 280.685 348.078 281.144L348.953 282.419C350.34 280.341 351.15 277.847 351.15 275.166C351.15 269.22 347.165 264.187 341.726 262.597L339.064 266.311C338.867 266.586 338.558 266.732 338.245 266.732C338.042 266.732 337.837 266.671 337.659 266.543C337.207 266.219 337.103 265.59 337.427 265.138L339.562 262.16C339.068 262.103 338.566 262.074 338.057 262.074C337.5 262.074 337.05 261.623 337.05 261.067C337.05 260.51 337.5 260.059 338.057 260.059C343.232 260.059 347.807 262.675 350.531 266.653L350.894 265.638C351.08 265.115 351.657 264.841 352.18 265.028C352.704 265.215 352.978 265.792 352.79 266.316L351.846 268.959L351.838 268.979C352.69 270.869 353.164 272.963 353.164 275.166C353.164 278.56 352.039 281.695 350.143 284.22C352.751 282.258 354.869 279.677 356.278 276.699L354.615 274.828C354.245 274.412 354.282 273.775 354.698 273.406C355.114 273.037 355.75 273.074 356.12 273.489L357.123 274.618C357.82 272.577 358.199 270.39 358.199 268.116C358.199 267.313 358.153 266.518 358.062 265.735L355.497 264.709C354.98 264.502 354.728 263.916 354.935 263.399C355.142 262.883 355.733 262.634 356.244 262.838L357.651 263.401C356.42 258.206 353.165 253.699 348.436 250.85C347.959 250.563 347.805 249.944 348.092 249.467C348.378 248.991 348.998 248.838 349.474 249.124C351.607 250.409 353.467 252.001 355.013 253.825L355.182 251.914C355.231 251.361 355.708 250.958 356.273 250.999C356.827 251.048 357.237 251.537 357.188 252.091L356.818 256.284C359.01 259.754 360.213 263.824 360.213 268.116C360.213 273.461 358.311 278.37 355.148 282.202C356.968 280.727 358.594 279.023 359.982 277.134C360.044 276.953 360.159 276.788 360.32 276.664C363.03 272.807 364.765 268.216 365.162 263.255L361.39 257.597C361.082 257.134 361.206 256.509 361.67 256.2C362.133 255.892 362.758 256.017 363.066 256.48L365.216 259.705C365.021 255.684 363.962 251.849 362.159 248.412L356.052 245.567C355.547 245.332 355.329 244.733 355.564 244.229C355.798 243.726 356.394 243.506 356.901 243.741L360.245 245.298C358.114 242.31 355.355 239.737 352.069 237.757C351.592 237.469 351.439 236.851 351.726 236.374C352.012 235.898 352.632 235.744 353.108 236.031C356.412 238.022 359.22 240.571 361.442 243.521L360.977 240.27C360.899 239.719 361.281 239.209 361.832 239.131C362.384 239.051 362.893 239.435 362.972 239.985L364.058 247.578C364.064 247.622 364.067 247.667 364.068 247.711C365.758 251.008 366.815 254.638 367.149 258.443L368.353 255.634C368.571 255.123 369.168 254.887 369.675 255.106C370.186 255.325 370.423 255.917 370.204 256.428L367.183 263.478C367.176 263.494 367.169 263.51 367.161 263.525C366.84 267.353 365.778 270.973 364.119 274.242L366.864 272.496C367.335 272.196 367.957 272.335 368.255 272.805C368.554 273.274 368.415 273.897 367.946 274.195L361.736 278.146C359.234 281.606 355.993 284.497 352.248 286.588L355.537 286.595C356.094 286.596 356.543 287.048 356.542 287.604C356.541 288.16 356.091 288.609 355.535 288.609H355.533L347.863 288.593C347.851 288.593 347.839 288.593 347.828 288.592C344.815 289.665 341.576 290.256 338.204 290.273Z" fill="#302EA7"/>
<path d="M338.204 290.273L338.203 290.023L338.203 290.023L338.204 290.273ZM337.907 290.273L337.909 290.023L337.909 290.023L337.907 290.273ZM328.286 288.592L328.369 288.357L328.324 288.341L328.276 288.343L328.286 288.592ZM328.25 288.593L328.249 288.343H328.249L328.25 288.593ZM320.58 288.609V288.859L320.581 288.859L320.58 288.609ZM319.571 287.604L319.821 287.604L319.571 287.604ZM320.576 286.595L320.577 286.845H320.577L320.576 286.595ZM323.865 286.588L323.866 286.838L324.822 286.836L323.987 286.37L323.865 286.588ZM314.377 278.146L314.579 277.999L314.551 277.96L314.511 277.935L314.377 278.146ZM308.167 274.195L308.301 273.984L308.301 273.984L308.167 274.195ZM307.858 272.804L308.069 272.939L308.069 272.938L307.858 272.804ZM309.249 272.495L309.383 272.284L309.383 272.284L309.249 272.495ZM311.993 274.241L311.859 274.452L312.63 274.942L312.216 274.128L311.993 274.241ZM308.952 263.522L309.201 263.502L309.197 263.455L309.177 263.413L308.952 263.522ZM308.931 263.477L309.161 263.379L309.161 263.379L308.931 263.477ZM305.91 256.427L306.14 256.329L306.14 256.329L305.91 256.427ZM306.439 255.105L306.537 255.335L306.538 255.335L306.439 255.105ZM307.761 255.634L307.531 255.732L307.531 255.732L307.761 255.634ZM308.965 258.442L308.735 258.54L309.214 258.464L308.965 258.442ZM312.046 247.742L312.269 247.857L312.297 247.8L312.296 247.737L312.046 247.742ZM312.056 247.578L311.809 247.543L311.808 247.543L312.056 247.578ZM313.142 239.985L312.894 239.95L312.894 239.95L313.142 239.985ZM314.282 239.131L314.317 238.883L314.315 238.883L314.282 239.131ZM315.136 240.27L315.384 240.306L315.384 240.306L315.136 240.27ZM314.665 243.565L314.418 243.529L314.865 243.715L314.665 243.565ZM317.616 240.204L317.441 240.025L317.441 240.026L317.616 240.204ZM319.04 240.219L318.861 240.394L318.861 240.394L319.04 240.219ZM319.026 241.643L319.201 241.822L319.201 241.822L319.026 241.643ZM315.904 245.282L315.701 245.136L315.146 245.91L316.01 245.508L315.904 245.282ZM319.212 243.741L319.107 243.514L319.107 243.515L319.212 243.741ZM320.55 244.229L320.323 244.334L320.323 244.335L320.55 244.229ZM320.062 245.568L320.168 245.794L320.168 245.794L320.062 245.568ZM313.975 248.402L313.869 248.176L313.793 248.211L313.754 248.286L313.975 248.402ZM310.897 259.705L310.647 259.693L310.603 260.596L311.105 259.844L310.897 259.705ZM313.047 256.479L313.255 256.618L313.256 256.617L313.047 256.479ZM314.444 256.2L314.582 255.992L314.582 255.992L314.444 256.2ZM314.723 257.596L314.515 257.458L314.515 257.458L314.723 257.596ZM310.951 263.255L310.743 263.116L310.695 263.188L310.702 263.275L310.951 263.255ZM315.793 276.663L315.588 276.807L315.61 276.838L315.641 276.862L315.793 276.663ZM316.131 277.134L315.895 277.215L315.907 277.252L315.93 277.282L316.131 277.134ZM320.964 282.201L320.807 282.395L321.157 282.042L320.964 282.201ZM316.084 270.983L316.332 270.951L316.33 270.938L316.084 270.983ZM316.07 270.875L316.32 270.856L316.318 270.844L316.07 270.875ZM317.914 258.93L318.141 259.035L318.164 258.985V258.93H317.914ZM319.928 255.426H319.678V256.217L320.133 255.569L319.928 255.426ZM334.892 246.184L334.928 246.432L334.93 246.431L334.892 246.184ZM336.032 247.038L336.28 247.003L336.28 247.003L336.032 247.038ZM335.178 248.178L335.142 247.93L335.142 247.93L335.178 248.178ZM317.914 268.069L317.664 268.068L317.662 268.804L318.112 268.222L317.914 268.069ZM319.131 266.493L319.329 266.646L319.33 266.646L319.131 266.493ZM320.544 266.312L320.39 266.509L320.391 266.51L320.544 266.312ZM320.725 267.725L320.527 267.572L320.527 267.572L320.725 267.725ZM318.131 271.081L317.933 270.928L317.868 271.012L317.884 271.118L318.131 271.081ZM325.972 284.222L325.821 284.422L326.172 284.072L325.972 284.222ZM323.619 270.703L323.858 270.776L323.901 270.637L323.801 270.531L323.619 270.703ZM322.659 269.69L322.841 269.518L322.841 269.518L322.659 269.69ZM322.698 268.266L322.526 268.084L322.526 268.085L322.698 268.266ZM324.121 268.305L323.939 268.477L323.94 268.477L324.121 268.305ZM324.431 268.632L324.25 268.804L324.499 269.068L324.657 268.741L324.431 268.632ZM325.659 266.533L325.864 266.676L325.864 266.676L325.659 266.533ZM327.061 266.283L327.204 266.078L327.204 266.078L327.061 266.283ZM327.311 267.686L327.516 267.829L327.516 267.829L327.311 267.686ZM326.358 281.041L326.134 281.154L326.315 281.511L326.557 281.192L326.358 281.041ZM326.931 280.285L326.732 280.134L326.732 280.134L326.931 280.285ZM328.342 280.092L328.493 279.893L328.493 279.892L328.342 280.092ZM328.536 281.503L328.337 281.352L328.337 281.352L328.536 281.503ZM327.487 282.885L327.288 282.734L327.176 282.883L327.286 283.033L327.487 282.885ZM337.925 288.259L337.923 288.509L337.924 288.509L337.925 288.259ZM338.189 288.259L338.19 288.509L338.191 288.509L338.189 288.259ZM340.897 287.949L340.952 288.193L341.479 288.076L341.048 287.75L340.897 287.949ZM337.215 284.516L337.403 284.352L337.309 284.244L337.168 284.271L337.215 284.516ZM335.727 284.8L335.773 285.046L335.774 285.045L335.727 284.8ZM334.549 283.999L334.304 284.046L334.304 284.046L334.549 283.999ZM335.35 282.821L335.303 282.576L335.303 282.576L335.35 282.821ZM335.812 282.733L335.859 282.979L336.241 282.906L336.016 282.588L335.812 282.733ZM331.274 264.096L331.523 264.114L331.532 263.989L331.437 263.907L331.274 264.096ZM331.129 263.942L331.328 263.791L331.328 263.791L331.129 263.942ZM327.939 259.746L327.74 259.897L327.74 259.897L327.939 259.746ZM328.131 258.335L327.98 258.136L327.98 258.136L328.131 258.335ZM329.542 258.527L329.343 258.678L329.343 258.678L329.542 258.527ZM331.584 261.213L331.385 261.364L331.747 261.84L331.831 261.248L331.584 261.213ZM333.082 254.679L333.317 254.764L333.317 254.764L333.082 254.679ZM334.371 254.076L334.457 253.841L334.456 253.841L334.371 254.076ZM334.975 255.367L335.21 255.452L335.21 255.452L334.975 255.367ZM333.148 267.529L333.398 267.524V267.524L333.148 267.529ZM334.5 275.808L334.263 275.887L334.415 276.342L334.701 275.957L334.5 275.808ZM335.233 274.819L335.032 274.67L335.032 274.67L335.233 274.819ZM336.642 274.609L336.791 274.408L336.79 274.407L336.642 274.609ZM336.851 276.018L337.052 276.166L337.053 276.166L336.851 276.018ZM335.37 278.017L335.169 277.868L335.081 277.987L335.143 278.121L335.37 278.017ZM343.276 287.174L343.137 287.381L343.251 287.458L343.376 287.403L343.276 287.174ZM347.644 284.074L347.828 284.244L347.964 284.098L347.851 283.932L347.644 284.074ZM346.416 282.283L346.21 282.424L346.21 282.424L346.416 282.283ZM346.678 280.883L346.819 281.089L346.819 281.089L346.678 280.883ZM348.078 281.144L348.285 281.002L348.285 281.002L348.078 281.144ZM348.953 282.419L348.747 282.56L348.956 282.865L349.161 282.558L348.953 282.419ZM341.726 262.597L341.796 262.357L341.626 262.307L341.523 262.451L341.726 262.597ZM339.064 266.311L338.861 266.166L338.861 266.166L339.064 266.311ZM337.659 266.543L337.513 266.747L337.513 266.747L337.659 266.543ZM337.427 265.138L337.631 265.284L337.631 265.284L337.427 265.138ZM339.562 262.16L339.765 262.305L340.013 261.96L339.59 261.911L339.562 262.16ZM350.531 266.653L350.325 266.794L350.602 267.199L350.767 266.737L350.531 266.653ZM350.894 265.638L351.129 265.722L351.129 265.722L350.894 265.638ZM352.18 265.028L352.096 265.263L352.096 265.263L352.18 265.028ZM352.79 266.316L352.555 266.231L352.555 266.231L352.79 266.316ZM351.846 268.959L352.08 269.046L352.081 269.043L351.846 268.959ZM351.838 268.979L351.604 268.893L351.569 268.989L351.61 269.082L351.838 268.979ZM350.143 284.22L349.944 284.07L350.294 284.42L350.143 284.22ZM356.278 276.699L356.504 276.806L356.575 276.656L356.465 276.533L356.278 276.699ZM354.615 274.828L354.802 274.662L354.802 274.662L354.615 274.828ZM354.698 273.406L354.532 273.219L354.532 273.219L354.698 273.406ZM356.12 273.489L356.307 273.323L356.306 273.323L356.12 273.489ZM357.123 274.618L356.936 274.784L357.221 275.104L357.359 274.699L357.123 274.618ZM358.062 265.735L358.31 265.706L358.293 265.558L358.155 265.503L358.062 265.735ZM355.497 264.709L355.404 264.941L355.404 264.941L355.497 264.709ZM356.244 262.838L356.151 263.07L356.151 263.07L356.244 262.838ZM357.651 263.401L357.559 263.633L358.006 263.812L357.895 263.344L357.651 263.401ZM348.436 250.85L348.565 250.635L348.564 250.635L348.436 250.85ZM348.092 249.467L348.306 249.596L348.307 249.596L348.092 249.467ZM349.474 249.124L349.603 248.91L349.603 248.91L349.474 249.124ZM355.013 253.825L354.822 253.987L355.209 254.444L355.262 253.847L355.013 253.825ZM355.182 251.914L354.933 251.892L354.933 251.892L355.182 251.914ZM356.273 250.999L356.295 250.75L356.292 250.75L356.273 250.999ZM357.188 252.091L356.939 252.069L356.939 252.069L357.188 252.091ZM356.818 256.284L356.569 256.262L356.562 256.346L356.607 256.418L356.818 256.284ZM355.148 282.202L354.955 282.042L355.305 282.396L355.148 282.202ZM359.982 277.134L360.183 277.282L360.206 277.252L360.218 277.216L359.982 277.134ZM360.32 276.664L360.472 276.863L360.502 276.839L360.524 276.808L360.32 276.664ZM365.162 263.255L365.411 263.275L365.418 263.188L365.37 263.116L365.162 263.255ZM361.39 257.597L361.598 257.458L361.598 257.458L361.39 257.597ZM361.67 256.2L361.808 256.409L361.808 256.408L361.67 256.2ZM363.066 256.48L362.858 256.618V256.618L363.066 256.48ZM365.216 259.705L365.008 259.844L365.51 260.596L365.466 259.693L365.216 259.705ZM362.159 248.412L362.381 248.296L362.341 248.221L362.265 248.185L362.159 248.412ZM356.052 245.567L355.946 245.794L355.946 245.794L356.052 245.567ZM355.564 244.229L355.79 244.334L355.791 244.334L355.564 244.229ZM356.901 243.741L357.007 243.514L357.006 243.514L356.901 243.741ZM360.245 245.298L360.139 245.524L360.999 245.925L360.448 245.153L360.245 245.298ZM352.069 237.757L352.198 237.542L352.198 237.542L352.069 237.757ZM351.726 236.374L351.94 236.503L351.94 236.503L351.726 236.374ZM353.108 236.031L352.978 236.245L352.979 236.246L353.108 236.031ZM361.442 243.521L361.243 243.672L361.69 243.486L361.442 243.521ZM360.977 240.27L360.73 240.305L360.73 240.306L360.977 240.27ZM361.832 239.131L361.867 239.378L361.867 239.378L361.832 239.131ZM362.972 239.985L362.724 240.02V240.02L362.972 239.985ZM364.058 247.578L364.305 247.542L364.305 247.542L364.058 247.578ZM364.068 247.711L363.818 247.713L363.818 247.773L363.845 247.825L364.068 247.711ZM367.149 258.443L366.9 258.465L367.379 258.541L367.149 258.443ZM368.353 255.634L368.583 255.733L368.583 255.733L368.353 255.634ZM369.675 255.106L369.576 255.335L369.576 255.336L369.675 255.106ZM370.204 256.428L369.974 256.33L369.974 256.33L370.204 256.428ZM367.183 263.478L366.953 263.38L366.953 263.38L367.183 263.478ZM367.161 263.525L366.937 263.415L366.916 263.457L366.912 263.504L367.161 263.525ZM364.119 274.242L363.896 274.129L363.483 274.943L364.254 274.453L364.119 274.242ZM366.864 272.496L366.73 272.285L366.73 272.285L366.864 272.496ZM368.255 272.805L368.044 272.939L368.044 272.939L368.255 272.805ZM367.946 274.195L368.08 274.406L368.08 274.406L367.946 274.195ZM361.736 278.146L361.602 277.936L361.561 277.961L361.533 278L361.736 278.146ZM352.248 286.588L352.126 286.37L351.291 286.836L352.247 286.838L352.248 286.588ZM355.537 286.595L355.537 286.845H355.537L355.537 286.595ZM356.542 287.604L356.792 287.605L356.542 287.604ZM355.533 288.609L355.532 288.859H355.533V288.609ZM347.863 288.593L347.864 288.343H347.864L347.863 288.593ZM347.828 288.592L347.837 288.343L347.789 288.341L347.744 288.357L347.828 288.592ZM338.056 290.523C338.106 290.523 338.156 290.523 338.206 290.523L338.203 290.023C338.154 290.023 338.105 290.023 338.056 290.023V290.523ZM337.906 290.523C337.956 290.523 338.006 290.523 338.056 290.523V290.023C338.007 290.023 337.958 290.023 337.909 290.023L337.906 290.523ZM337.909 290.023C334.566 290.006 331.355 289.42 328.369 288.357L328.202 288.828C331.24 289.91 334.506 290.506 337.906 290.523L337.909 290.023ZM328.25 288.843C328.265 288.843 328.28 288.843 328.295 288.842L328.276 288.343C328.267 288.343 328.258 288.343 328.249 288.343L328.25 288.843ZM320.581 288.859L328.25 288.843L328.249 288.343L320.58 288.359L320.581 288.859ZM320.578 288.859H320.58V288.359H320.578V288.859ZM319.321 287.605C319.322 288.298 319.885 288.859 320.578 288.859V288.359C320.16 288.359 319.822 288.022 319.821 287.604L319.321 287.605ZM320.576 286.345C319.881 286.346 319.32 286.911 319.321 287.605L319.821 287.604C319.82 287.185 320.158 286.846 320.577 286.845L320.576 286.345ZM323.865 286.338L320.576 286.345L320.577 286.845L323.866 286.838L323.865 286.338ZM323.987 286.37C320.273 284.297 317.06 281.429 314.579 277.999L314.174 278.292C316.697 281.781 319.966 284.697 323.743 286.806L323.987 286.37ZM314.511 277.935L308.301 273.984L308.033 274.405L314.242 278.357L314.511 277.935ZM308.301 273.984C307.948 273.759 307.844 273.291 308.069 272.939L307.647 272.67C307.274 273.256 307.447 274.033 308.033 274.405L308.301 273.984ZM308.069 272.938C308.294 272.585 308.761 272.482 309.115 272.706L309.383 272.284C308.797 271.912 308.021 272.083 307.647 272.67L308.069 272.938ZM309.115 272.706L311.859 274.452L312.128 274.03L309.383 272.284L309.115 272.706ZM312.216 274.128C310.571 270.887 309.519 267.297 309.201 263.502L308.703 263.543C309.026 267.405 310.097 271.057 311.771 274.354L312.216 274.128ZM308.701 263.576C308.71 263.595 308.718 263.614 308.727 263.632L309.177 263.413C309.171 263.402 309.166 263.39 309.161 263.379L308.701 263.576ZM305.68 256.526L308.702 263.576L309.161 263.379L306.14 256.329L305.68 256.526ZM306.341 254.875C305.702 255.148 305.406 255.888 305.68 256.526L306.14 256.329C305.975 255.945 306.153 255.499 306.537 255.335L306.341 254.875ZM307.991 255.535C307.717 254.896 306.973 254.601 306.34 254.876L306.538 255.335C306.917 255.17 307.366 255.347 307.531 255.732L307.991 255.535ZM309.195 258.343L307.991 255.535L307.531 255.732L308.735 258.54L309.195 258.343ZM309.214 258.464C309.544 254.723 310.584 251.136 312.269 247.857L311.824 247.628C310.109 250.966 309.051 254.615 308.716 258.42L309.214 258.464ZM311.808 247.543C311.799 247.611 311.795 247.68 311.796 247.748L312.296 247.737C312.295 247.696 312.298 247.655 312.303 247.613L311.808 247.543ZM312.894 239.95L311.809 247.543L312.303 247.613L313.389 240.021L312.894 239.95ZM314.315 238.883C313.631 238.79 312.993 239.262 312.894 239.95L313.389 240.021C313.448 239.609 313.831 239.322 314.248 239.379L314.315 238.883ZM315.384 240.306C315.482 239.618 315.005 238.982 314.317 238.883L314.246 239.378C314.661 239.438 314.948 239.821 314.889 240.235L315.384 240.306ZM314.912 243.6L315.384 240.306L314.889 240.235L314.418 243.529L314.912 243.6ZM314.865 243.715C315.746 242.543 316.723 241.429 317.791 240.383L317.441 240.026C316.355 241.09 315.362 242.223 314.465 243.414L314.865 243.715ZM317.79 240.383C318.091 240.09 318.57 240.095 318.861 240.394L319.219 240.044C318.733 239.547 317.938 239.541 317.441 240.025L317.79 240.383ZM318.861 240.394C319.154 240.693 319.15 241.172 318.851 241.464L319.201 241.822C319.697 241.335 319.704 240.54 319.218 240.044L318.861 240.394ZM318.851 241.464C317.684 242.608 316.632 243.836 315.701 245.136L316.108 245.427C317.022 244.151 318.055 242.945 319.201 241.822L318.851 241.464ZM319.107 243.515L315.799 245.055L316.01 245.508L319.318 243.968L319.107 243.515ZM320.777 244.124C320.485 243.495 319.738 243.222 319.107 243.514L319.317 243.968C319.699 243.791 320.148 243.957 320.323 244.334L320.777 244.124ZM320.168 245.794C320.797 245.501 321.07 244.753 320.776 244.124L320.323 244.335C320.5 244.714 320.336 245.164 319.956 245.341L320.168 245.794ZM314.081 248.629L320.168 245.794L319.956 245.341L313.869 248.176L314.081 248.629ZM313.754 248.286C311.909 251.782 310.844 255.655 310.647 259.693L311.147 259.717C311.34 255.752 312.386 251.95 314.196 248.519L313.754 248.286ZM312.839 256.34L310.689 259.566L311.105 259.844L313.255 256.618L312.839 256.34ZM314.582 255.992C314.004 255.607 313.224 255.762 312.839 256.341L313.256 256.617C313.487 256.27 313.956 256.175 314.306 256.408L314.582 255.992ZM314.931 257.735C315.317 257.158 315.161 256.377 314.582 255.992L314.305 256.408C314.654 256.64 314.748 257.11 314.515 257.458L314.931 257.735ZM311.159 263.393L314.931 257.735L314.515 257.458L310.743 263.116L311.159 263.393ZM310.702 263.275C311.103 268.282 312.853 272.915 315.588 276.807L315.997 276.52C313.312 272.698 311.594 268.15 311.2 263.235L310.702 263.275ZM315.641 276.862C315.762 276.955 315.848 277.079 315.895 277.215L316.368 277.053C316.29 276.826 316.147 276.62 315.945 276.465L315.641 276.862ZM315.93 277.282C317.33 279.188 318.971 280.908 320.807 282.395L321.122 282.007C319.319 280.546 317.708 278.858 316.333 276.986L315.93 277.282ZM315.836 271.015C316.391 275.29 318.154 279.19 320.771 282.36L321.157 282.042C318.598 278.942 316.874 275.129 316.332 270.951L315.836 271.015ZM315.821 270.893C315.824 270.938 315.83 270.983 315.838 271.028L316.33 270.938C316.325 270.911 316.322 270.884 316.32 270.857L315.821 270.893ZM315.649 268.116C315.649 269.061 315.708 269.992 315.822 270.906L316.318 270.844C316.207 269.95 316.149 269.04 316.149 268.116H315.649ZM317.687 258.826C316.377 261.674 315.649 264.827 315.649 268.116H316.149C316.149 264.902 316.861 261.82 318.141 259.035L317.687 258.826ZM317.664 253.009V258.93H318.164V253.009H317.664ZM318.921 251.751C318.226 251.751 317.664 252.314 317.664 253.009H318.164C318.164 252.59 318.503 252.251 318.921 252.251V251.751ZM320.178 253.009C320.178 252.314 319.616 251.751 318.921 251.751V252.251C319.34 252.251 319.678 252.59 319.678 253.009H320.178ZM320.178 255.426V253.009H319.678V255.426H320.178ZM334.857 245.937C328.576 246.835 323.182 250.355 319.724 255.282L320.133 255.569C323.515 250.75 328.79 247.309 334.928 246.432L334.857 245.937ZM336.28 247.003C336.182 246.318 335.546 245.833 334.855 245.937L334.93 246.431C335.341 246.369 335.725 246.658 335.785 247.074L336.28 247.003ZM335.213 248.425C335.9 248.327 336.378 247.69 336.28 247.003L335.785 247.074C335.844 247.488 335.556 247.871 335.142 247.93L335.213 248.425ZM318.164 268.07C318.187 258.254 325.51 249.813 335.213 248.425L335.142 247.93C325.192 249.354 317.688 258.006 317.664 268.068L318.164 268.07ZM318.933 266.34L317.716 267.916L318.112 268.222L319.329 266.646L318.933 266.34ZM320.697 266.114C320.146 265.687 319.354 265.793 318.933 266.341L319.33 266.646C319.583 266.316 320.06 266.252 320.39 266.509L320.697 266.114ZM320.922 267.878C321.347 267.328 321.246 266.539 320.696 266.114L320.391 266.51C320.722 266.765 320.783 267.241 320.527 267.572L320.922 267.878ZM318.329 271.234L320.923 267.878L320.527 267.572L317.933 270.928L318.329 271.234ZM326.122 284.022C322.031 280.945 319.162 276.33 318.379 271.044L317.884 271.118C318.687 276.537 321.629 281.268 325.821 284.422L326.122 284.022ZM322.7 275.166C322.7 278.617 323.844 281.805 325.772 284.372L326.172 284.072C324.306 281.588 323.2 278.504 323.2 275.166H322.7ZM323.38 270.629C322.931 272.086 322.7 273.611 322.7 275.166H323.2C323.2 273.661 323.423 272.185 323.858 270.776L323.38 270.629ZM322.478 269.862L323.438 270.875L323.801 270.531L322.841 269.518L322.478 269.862ZM322.526 268.085C322.021 268.562 322.001 269.358 322.478 269.862L322.841 269.518C322.553 269.214 322.566 268.735 322.87 268.448L322.526 268.085ZM324.303 268.133C323.826 267.627 323.03 267.609 322.526 268.084L322.869 268.448C323.174 268.161 323.653 268.173 323.939 268.477L324.303 268.133ZM324.613 268.46L324.303 268.133L323.94 268.477L324.25 268.804L324.613 268.46ZM325.454 266.39C324.978 267.072 324.561 267.785 324.206 268.524L324.657 268.741C325 268.026 325.403 267.336 325.864 266.676L325.454 266.39ZM327.204 266.078C326.632 265.679 325.85 265.82 325.453 266.39L325.864 266.676C326.102 266.333 326.573 266.248 326.918 266.488L327.204 266.078ZM327.516 267.829C327.912 267.259 327.774 266.476 327.204 266.078L326.918 266.488C327.261 266.728 327.345 267.199 327.106 267.543L327.516 267.829ZM325.214 275.166C325.214 272.523 326.01 269.987 327.516 267.829L327.106 267.543C325.541 269.785 324.714 272.422 324.714 275.166H325.214ZM326.581 280.929C325.707 279.195 325.214 277.237 325.214 275.166H324.714C324.714 277.318 325.226 279.352 326.134 281.154L326.581 280.929ZM326.732 280.134L326.158 280.89L326.557 281.192L327.13 280.437L326.732 280.134ZM328.493 279.892C327.937 279.471 327.151 279.582 326.732 280.134L327.13 280.437C327.383 280.104 327.856 280.037 328.191 280.291L328.493 279.892ZM328.735 281.654C329.155 281.101 329.046 280.312 328.493 279.893L328.191 280.291C328.524 280.544 328.589 281.019 328.337 281.352L328.735 281.654ZM327.686 283.036L328.735 281.654L328.337 281.352L327.288 282.734L327.686 283.036ZM337.928 288.009C333.728 287.967 330.005 285.9 327.689 282.738L327.286 283.033C329.69 286.317 333.559 288.465 337.923 288.509L337.928 288.009ZM337.924 288.509C337.968 288.509 338.012 288.509 338.057 288.509V288.009C338.013 288.009 337.97 288.009 337.926 288.009L337.924 288.509ZM338.057 288.509C338.101 288.509 338.146 288.509 338.19 288.509L338.188 288.009C338.144 288.009 338.1 288.009 338.057 288.009V288.509ZM340.843 287.705C339.987 287.895 339.098 288 338.187 288.009L338.191 288.509C339.138 288.499 340.061 288.391 340.952 288.193L340.843 287.705ZM337.026 284.68C338.088 285.903 339.32 287.067 340.746 288.148L341.048 287.75C339.65 286.689 338.443 285.549 337.403 284.352L337.026 284.68ZM335.774 285.045L337.261 284.762L337.168 284.271L335.681 284.554L335.774 285.045ZM335.538 285.068C335.615 285.068 335.695 285.06 335.773 285.046L335.682 284.554C335.633 284.563 335.584 284.568 335.538 284.568V285.068ZM334.304 284.046C334.419 284.649 334.946 285.068 335.538 285.068V284.568C335.181 284.568 334.864 284.315 334.795 283.952L334.304 284.046ZM335.303 282.576C334.622 282.706 334.173 283.363 334.304 284.046L334.795 283.952C334.716 283.541 334.986 283.145 335.397 283.067L335.303 282.576ZM335.765 282.487L335.303 282.576L335.397 283.067L335.859 282.979L335.765 282.487ZM331.024 264.078C330.625 269.646 331.287 276.788 335.608 282.878L336.016 282.588C331.788 276.631 331.128 269.623 331.523 264.114L331.024 264.078ZM330.93 264.093C330.984 264.165 331.045 264.229 331.11 264.286L331.437 263.907C331.397 263.873 331.361 263.834 331.328 263.791L330.93 264.093ZM327.74 259.897L330.93 264.093L331.328 263.791L328.138 259.595L327.74 259.897ZM327.98 258.136C327.427 258.556 327.32 259.345 327.74 259.897L328.138 259.595C327.885 259.262 327.95 258.787 328.282 258.534L327.98 258.136ZM329.742 258.376C329.323 257.823 328.534 257.715 327.98 258.136L328.282 258.534C328.617 258.28 329.091 258.346 329.343 258.678L329.742 258.376ZM331.783 261.062L329.741 258.376L329.343 258.678L331.385 261.364L331.783 261.062ZM332.847 254.593C332.815 254.682 331.891 257.301 331.336 261.178L331.831 261.248C332.38 257.414 333.293 254.829 333.317 254.764L332.847 254.593ZM334.456 253.841C333.806 253.608 333.084 253.94 332.847 254.593L333.317 254.764C333.459 254.373 333.894 254.17 334.287 254.312L334.456 253.841ZM335.21 255.452C335.446 254.8 335.11 254.078 334.457 253.841L334.286 254.311C334.679 254.454 334.882 254.888 334.74 255.282L335.21 255.452ZM333.398 267.524C333.331 264.215 333.78 261.208 334.249 259.02C334.483 257.927 334.721 257.039 334.903 256.423C334.993 256.114 335.069 255.874 335.123 255.709C335.15 255.627 335.172 255.564 335.187 255.52C335.194 255.498 335.2 255.482 335.204 255.47C335.206 255.465 335.207 255.46 335.209 255.457C335.209 255.455 335.21 255.454 335.21 255.453C335.21 255.452 335.21 255.452 335.21 255.452L334.74 255.281C334.716 255.348 332.763 260.822 332.898 267.534L333.398 267.524ZM334.737 275.728C333.906 273.248 333.458 270.511 333.398 267.524L332.898 267.534C332.959 270.565 333.414 273.353 334.263 275.887L334.737 275.728ZM335.032 274.67L334.299 275.659L334.701 275.957L335.434 274.968L335.032 274.67ZM336.79 274.407C336.231 273.996 335.446 274.112 335.032 274.67L335.433 274.968C335.682 274.632 336.156 274.561 336.494 274.81L336.79 274.407ZM337.053 276.166C337.465 275.609 337.348 274.822 336.791 274.408L336.493 274.81C336.829 275.059 336.899 275.533 336.65 275.869L337.053 276.166ZM335.571 278.166L337.052 276.166L336.651 275.869L335.169 277.868L335.571 278.166ZM343.415 286.966C339.873 284.59 337.264 281.563 335.598 277.913L335.143 278.121C336.85 281.86 339.522 284.956 343.137 287.381L343.415 286.966ZM347.461 283.904C346.265 285.191 344.808 286.233 343.176 286.945L343.376 287.403C345.072 286.663 346.585 285.581 347.828 284.244L347.461 283.904ZM346.21 282.424L347.438 284.215L347.851 283.932L346.622 282.141L346.21 282.424ZM346.536 280.676C345.963 281.069 345.818 281.851 346.21 282.424L346.623 282.142C346.386 281.796 346.474 281.325 346.819 281.089L346.536 280.676ZM348.285 281.002C347.892 280.43 347.11 280.283 346.536 280.676L346.819 281.089C347.164 280.852 347.635 280.94 347.872 281.285L348.285 281.002ZM349.159 282.278L348.285 281.002L347.872 281.285L348.747 282.56L349.159 282.278ZM350.9 275.166C350.9 277.796 350.106 280.242 348.745 282.28L349.161 282.558C350.575 280.441 351.4 277.898 351.4 275.166H350.9ZM341.656 262.837C346.991 264.397 350.9 269.334 350.9 275.166H351.4C351.4 269.106 347.339 263.977 341.796 262.357L341.656 262.837ZM339.267 266.457L341.929 262.743L341.523 262.451L338.861 266.166L339.267 266.457ZM338.245 266.982C338.635 266.982 339.022 266.8 339.267 266.457L338.861 266.166C338.713 266.372 338.481 266.482 338.245 266.482V266.982ZM337.513 266.747C337.735 266.906 337.992 266.982 338.245 266.982V266.482C338.092 266.482 337.938 266.436 337.804 266.34L337.513 266.747ZM337.224 264.992C336.819 265.556 336.949 266.342 337.513 266.747L337.804 266.34C337.465 266.097 337.387 265.623 337.631 265.284L337.224 264.992ZM339.359 262.014L337.224 264.992L337.631 265.284L339.765 262.305L339.359 262.014ZM338.057 262.324C338.556 262.324 339.049 262.352 339.533 262.408L339.59 261.911C339.087 261.853 338.575 261.824 338.057 261.824V262.324ZM336.8 261.067C336.8 261.761 337.362 262.324 338.057 262.324V261.824C337.638 261.824 337.3 261.485 337.3 261.067H336.8ZM338.057 259.809C337.362 259.809 336.8 260.372 336.8 261.067H337.3C337.3 260.648 337.638 260.309 338.057 260.309V259.809ZM350.737 266.512C347.969 262.469 343.318 259.809 338.057 259.809V260.309C343.146 260.309 347.646 262.881 350.325 266.794L350.737 266.512ZM350.658 265.554L350.296 266.569L350.767 266.737L351.129 265.722L350.658 265.554ZM352.264 264.793C351.611 264.559 350.89 264.901 350.658 265.554L351.129 265.722C351.269 265.329 351.703 265.123 352.096 265.263L352.264 264.793ZM353.025 266.4C353.26 265.746 352.918 265.026 352.264 264.793L352.096 265.263C352.491 265.404 352.696 265.838 352.555 266.231L353.025 266.4ZM352.081 269.043L353.025 266.4L352.555 266.231L351.61 268.875L352.081 269.043ZM352.073 269.066L352.08 269.046L351.611 268.873L351.604 268.893L352.073 269.066ZM353.414 275.166C353.414 272.927 352.932 270.798 352.066 268.877L351.61 269.082C352.448 270.94 352.914 272.999 352.914 275.166H353.414ZM350.343 284.37C352.271 281.804 353.414 278.616 353.414 275.166H352.914C352.914 278.504 351.808 281.587 349.944 284.07L350.343 284.37ZM356.052 276.592C354.661 279.534 352.569 282.082 349.993 284.02L350.294 284.42C352.934 282.433 355.078 279.821 356.504 276.806L356.052 276.592ZM354.428 274.994L356.091 276.865L356.465 276.533L354.802 274.662L354.428 274.994ZM354.532 273.219C354.013 273.68 353.966 274.475 354.428 274.994L354.802 274.662C354.524 274.349 354.552 273.871 354.865 273.592L354.532 273.219ZM356.306 273.323C355.845 272.804 355.051 272.758 354.532 273.219L354.865 273.592C355.176 273.315 355.655 273.343 355.933 273.655L356.306 273.323ZM357.31 274.452L356.307 273.323L355.933 273.655L356.936 274.784L357.31 274.452ZM357.949 268.116C357.949 270.362 357.575 272.522 356.886 274.537L357.359 274.699C358.066 272.632 358.449 270.418 358.449 268.116H357.949ZM357.813 265.764C357.903 266.538 357.949 267.323 357.949 268.116H358.449C358.449 267.303 358.402 266.499 358.31 265.706L357.813 265.764ZM355.404 264.941L357.969 265.967L358.155 265.503L355.589 264.477L355.404 264.941ZM354.703 263.307C354.445 263.952 354.759 264.683 355.404 264.941L355.59 264.477C355.201 264.321 355.012 263.88 355.167 263.492L354.703 263.307ZM356.337 262.606C355.698 262.351 354.961 262.661 354.703 263.307L355.167 263.492C355.322 263.104 355.767 262.917 356.151 263.07L356.337 262.606ZM357.744 263.169L356.337 262.606L356.151 263.07L357.559 263.633L357.744 263.169ZM348.307 251.064C352.978 253.878 356.192 258.33 357.408 263.459L357.895 263.344C356.647 258.083 353.351 253.519 348.565 250.635L348.307 251.064ZM347.878 249.338C347.52 249.933 347.711 250.706 348.307 251.064L348.564 250.635C348.206 250.42 348.09 249.955 348.306 249.596L347.878 249.338ZM349.603 248.91C349.009 248.553 348.236 248.743 347.878 249.339L348.307 249.596C348.521 249.238 348.987 249.123 349.345 249.339L349.603 248.91ZM355.204 253.664C353.64 251.818 351.759 250.209 349.603 248.91L349.345 249.339C351.455 250.609 353.294 252.183 354.822 253.987L355.204 253.664ZM354.933 251.892L354.764 253.803L355.262 253.847L355.431 251.936L354.933 251.892ZM356.292 250.75C355.593 250.698 354.994 251.2 354.933 251.892L355.431 251.936C355.467 251.522 355.823 251.217 356.255 251.249L356.292 250.75ZM357.437 252.113C357.498 251.421 356.986 250.811 356.295 250.75L356.251 251.248C356.668 251.285 356.976 251.653 356.939 252.069L357.437 252.113ZM357.067 256.306L357.437 252.113L356.939 252.069L356.569 256.262L357.067 256.306ZM360.463 268.116C360.463 263.777 359.247 259.66 357.029 256.151L356.607 256.418C358.774 259.847 359.963 263.871 359.963 268.116H360.463ZM355.341 282.361C358.539 278.486 360.463 273.522 360.463 268.116H359.963C359.963 273.401 358.083 278.254 354.955 282.042L355.341 282.361ZM355.305 282.396C357.142 280.908 358.783 279.189 360.183 277.282L359.78 276.986C358.405 278.858 356.794 280.547 354.991 282.007L355.305 282.396ZM360.218 277.216C360.265 277.079 360.351 276.955 360.472 276.863L360.167 276.466C359.966 276.62 359.823 276.827 359.746 277.053L360.218 277.216ZM360.524 276.808C363.26 272.915 365.011 268.282 365.411 263.275L364.913 263.235C364.52 268.151 362.801 272.699 360.115 276.521L360.524 276.808ZM365.37 263.116L361.598 257.458L361.182 257.736L364.954 263.393L365.37 263.116ZM361.598 257.458C361.366 257.11 361.46 256.64 361.808 256.409L361.531 255.992C360.953 256.377 360.797 257.158 361.182 257.736L361.598 257.458ZM361.808 256.408C362.157 256.176 362.626 256.27 362.858 256.618L363.274 256.341C362.889 255.763 362.109 255.607 361.531 255.992L361.808 256.408ZM362.858 256.618L365.008 259.844L365.424 259.566L363.274 256.341L362.858 256.618ZM365.466 259.693C365.269 255.636 364.2 251.765 362.381 248.296L361.938 248.528C363.723 251.933 364.773 255.732 364.967 259.717L365.466 259.693ZM355.946 245.794L362.054 248.638L362.265 248.185L356.157 245.341L355.946 245.794ZM355.337 244.123C355.044 244.753 355.316 245.501 355.946 245.794L356.157 245.341C355.778 245.164 355.614 244.714 355.79 244.334L355.337 244.123ZM357.006 243.514C356.374 243.222 355.629 243.495 355.337 244.123L355.791 244.334C355.966 243.956 356.414 243.791 356.797 243.968L357.006 243.514ZM360.35 245.071L357.007 243.514L356.796 243.968L360.139 245.524L360.35 245.071ZM360.448 245.153C358.298 242.137 355.513 239.54 352.198 237.542L351.94 237.971C355.197 239.933 357.931 242.483 360.041 245.443L360.448 245.153ZM352.198 237.542C351.839 237.326 351.724 236.861 351.94 236.503L351.512 236.245C351.153 236.84 351.345 237.612 351.94 237.971L352.198 237.542ZM351.94 236.503C352.155 236.145 352.621 236.03 352.978 236.245L353.237 235.817C352.644 235.459 351.869 235.65 351.511 236.246L351.94 236.503ZM352.979 236.246C356.256 238.22 359.04 240.747 361.243 243.672L361.642 243.371C359.4 240.395 356.568 237.824 353.237 235.817L352.979 236.246ZM360.73 240.306L361.195 243.557L361.69 243.486L361.225 240.235L360.73 240.306ZM361.797 238.883C361.109 238.981 360.632 239.618 360.73 240.305L361.225 240.235C361.166 239.821 361.453 239.437 361.867 239.378L361.797 238.883ZM363.219 239.949C363.121 239.263 362.485 238.784 361.796 238.883L361.867 239.378C362.282 239.319 362.665 239.606 362.724 240.02L363.219 239.949ZM364.305 247.542L363.219 239.949L362.724 240.02L363.81 247.613L364.305 247.542ZM364.318 247.709C364.317 247.654 364.313 247.598 364.305 247.542L363.81 247.613C363.815 247.646 363.817 247.68 363.818 247.713L364.318 247.709ZM363.845 247.825C365.52 251.093 366.569 254.692 366.9 258.465L367.398 258.421C367.061 254.584 365.995 250.922 364.29 247.597L363.845 247.825ZM367.379 258.541L368.583 255.733L368.123 255.536L366.919 258.344L367.379 258.541ZM368.583 255.733C368.747 255.349 369.196 255.172 369.576 255.335L369.774 254.876C369.141 254.603 368.396 254.898 368.123 255.536L368.583 255.733ZM369.576 255.336C369.961 255.5 370.139 255.945 369.974 256.33L370.434 256.527C370.707 255.888 370.412 255.149 369.773 254.876L369.576 255.336ZM369.974 256.33L366.953 263.38L367.412 263.577L370.434 256.527L369.974 256.33ZM366.953 263.38C366.948 263.392 366.942 263.403 366.937 263.415L367.386 263.635C367.395 263.616 367.404 263.596 367.412 263.577L366.953 263.38ZM366.912 263.504C366.594 267.299 365.541 270.888 363.896 274.129L364.342 274.355C366.016 271.059 367.087 267.407 367.41 263.546L366.912 263.504ZM364.254 274.453L366.998 272.706L366.73 272.285L363.985 274.031L364.254 274.453ZM366.998 272.707C367.353 272.481 367.82 272.586 368.044 272.939L368.466 272.671C368.094 272.085 367.318 271.911 366.73 272.285L366.998 272.707ZM368.044 272.939C368.269 273.292 368.165 273.76 367.812 273.984L368.08 274.406C368.666 274.033 368.839 273.256 368.466 272.671L368.044 272.939ZM367.812 273.984L361.602 277.936L361.87 278.357L368.08 274.406L367.812 273.984ZM361.533 278C359.052 281.43 355.839 284.297 352.126 286.37L352.37 286.806C356.147 284.698 359.415 281.781 361.938 278.293L361.533 278ZM355.538 286.345L352.248 286.338L352.247 286.838L355.537 286.845L355.538 286.345ZM356.792 287.605C356.793 286.911 356.232 286.346 355.537 286.345L355.537 286.845C355.955 286.846 356.293 287.185 356.292 287.604L356.792 287.605ZM355.535 288.859C356.229 288.859 356.791 288.298 356.792 287.605L356.292 287.604C356.291 288.021 355.953 288.359 355.535 288.359V288.859ZM355.533 288.859H355.535V288.359H355.533V288.859ZM347.863 288.843L355.532 288.859L355.534 288.359L347.864 288.343L347.863 288.843ZM347.818 288.842C347.833 288.843 347.848 288.843 347.863 288.843L347.864 288.343C347.855 288.343 347.846 288.343 347.837 288.343L347.818 288.842ZM347.744 288.357C344.757 289.42 341.547 290.006 338.203 290.023L338.206 290.523C341.606 290.506 344.873 289.91 347.911 288.828L347.744 288.357Z" fill="black"/>
<path d="M67.7845 202.639C68.2395 201.969 68.6094 198.703 68.7407 197.904C69.1337 196.459 69.8687 187.322 69.8687 184.563C69.8687 183.106 70.0042 181.229 70.4742 180.313C71.3052 178.715 73.1285 175.431 74.6162 174.693C73.7893 174.744 71.0827 176.292 70.4742 176.854C69.7781 177.416 69.1329 178.362 68.6991 179.144C68.1588 180.087 68.1166 181.127 67.891 182.19C67.417 184.421 67.4518 194.272 67.4517 196.267C67.4517 198.263 67.6805 202.604 67.7845 202.639Z" fill="white"/>
<path d="M35.2991 221.279C35.8147 219.687 35.4646 212.853 35.8147 210.052C35.9955 208.606 36.3687 207.128 36.8387 206.212C37.6697 204.614 40.5391 202.588 42.0268 201.851C41.1999 201.901 38.4933 203.449 37.8848 204.012C36.1642 205.4 35.7311 206.52 35.2991 208.556C35.0605 209.681 34.9663 212.912 34.9663 214.908C34.9663 216.903 35.195 221.245 35.2991 221.279Z" fill="white"/>
<path d="M105.26 204.29C105.573 201.605 105.411 198.731 106.323 196.155C106.897 194.557 108.878 192.531 109.905 191.794C109.334 191.845 107.465 193.393 107.045 193.955C105.65 195.586 105.26 197.487 105.26 199.831C105.26 201.827 105.189 204.255 105.26 204.29Z" fill="white"/>
</g>
<path d="M307.505 184.403C307.362 184.394 307.237 184.502 307.227 184.646C307.207 184.943 307.492 185.86 308.088 186.478C308.274 186.67 308.477 186.818 308.692 186.919C308.308 187.115 307.926 187.271 307.492 187.271C307.49 187.271 307.489 187.27 307.488 187.271C307.344 187.271 307.227 187.387 307.226 187.531C307.226 187.675 307.343 187.793 307.487 187.793H307.492C308.174 187.793 308.72 187.5 309.248 187.216C309.704 186.971 310.135 186.74 310.621 186.717C310.765 186.71 310.877 186.588 310.87 186.444C310.863 186.3 310.742 186.189 310.597 186.196C310.147 186.217 309.754 186.371 309.382 186.557C309.059 186.552 308.758 186.411 308.485 186.136C307.967 185.615 307.743 184.817 307.748 184.681C307.758 184.537 307.649 184.413 307.505 184.403Z" fill="#302EA7" stroke="black" stroke-width="0.2"/>
<path d="M308.655 188.216L308.382 188.489C308.28 188.591 308.28 188.756 308.382 188.858C308.433 188.909 308.5 188.935 308.567 188.935C308.634 188.935 308.701 188.909 308.752 188.858L309.024 188.585C309.126 188.483 309.126 188.318 309.024 188.216C308.922 188.114 308.757 188.114 308.655 188.216Z" fill="#302EA7" stroke="black" stroke-width="0.2"/>
<path d="M308.867 192.338C309.008 192.308 309.098 192.169 309.068 192.028C309.038 191.887 308.899 191.798 308.758 191.827C308.375 191.909 308.073 191.901 307.924 191.872C307.763 191.414 307.554 190.959 306.925 190.658C306.795 190.595 306.639 190.65 306.577 190.78C306.514 190.91 306.569 191.066 306.699 191.128C307.205 191.371 307.322 191.721 307.486 192.205C307.641 192.668 307.836 193.245 308.452 193.79C308.502 193.834 308.563 193.855 308.625 193.855C308.697 193.855 308.769 193.826 308.821 193.767C308.916 193.659 308.906 193.494 308.798 193.399C308.429 193.072 308.245 192.741 308.115 192.414C308.137 192.415 308.159 192.415 308.182 192.415C308.39 192.415 308.626 192.39 308.867 192.338Z" fill="#302EA7" stroke="black" stroke-width="0.2"/>
<path d="M311.886 191.449L311.613 191.721C311.511 191.823 311.511 191.989 311.613 192.091C311.664 192.142 311.731 192.167 311.798 192.167C311.865 192.167 311.931 192.142 311.982 192.091L312.255 191.818C312.357 191.716 312.357 191.551 312.255 191.449C312.153 191.347 311.988 191.347 311.886 191.449Z" fill="#302EA7" stroke="black" stroke-width="0.2"/>
<path d="M299.381 187.442C299.59 187.298 299.933 187.196 300.329 187.142C299.951 187.727 299.644 188.36 299.429 189.008C299.383 189.145 299.457 189.293 299.594 189.338C299.622 189.347 299.649 189.351 299.677 189.351C299.786 189.351 299.888 189.282 299.924 189.172C300.166 188.443 300.533 187.735 300.989 187.101C301.594 187.103 302.216 187.212 302.623 187.452C302.665 187.477 302.71 187.488 302.755 187.488C302.845 187.488 302.932 187.442 302.981 187.36C303.054 187.236 303.013 187.075 302.888 187.002C302.485 186.765 301.945 186.633 301.39 186.59C301.522 186.437 301.658 186.288 301.801 186.148C302.015 185.936 302.235 185.722 302.462 185.512C302.502 185.55 302.546 185.586 302.592 185.622C302.844 185.817 303.157 185.965 303.39 185.999C303.403 186.001 303.416 186.002 303.429 186.002C303.556 186.002 303.668 185.909 303.687 185.779C303.708 185.637 303.61 185.504 303.467 185.483C303.32 185.461 303.061 185.34 302.852 185.16C303.34 184.734 303.859 184.335 304.416 184.009C304.465 183.98 304.515 183.952 304.565 183.924C304.859 184.091 305.152 184.31 305.352 184.574C305.436 184.685 305.498 184.796 305.537 184.908C305.539 184.913 305.54 184.918 305.542 184.922C305.605 185.107 305.609 185.295 305.553 185.49C305.514 185.629 305.595 185.773 305.734 185.813C305.757 185.819 305.781 185.823 305.805 185.823C305.919 185.823 306.023 185.747 306.056 185.632C306.128 185.378 306.132 185.123 306.071 184.876C306.117 184.816 306.19 184.73 306.252 184.656C306.585 184.261 307.074 183.681 307.231 183.128C307.371 183.119 307.512 183.115 307.655 183.115C308.657 183.115 309.578 183.357 310.46 183.73C310.092 183.965 309.772 184.262 309.508 184.508L309.443 184.569C309.337 184.667 309.331 184.832 309.429 184.938C309.48 184.993 309.55 185.021 309.62 185.021C309.684 185.021 309.747 184.998 309.798 184.952L309.864 184.89C310.212 184.567 310.607 184.199 311.047 184C311.688 184.315 312.312 184.69 312.938 185.08C313.209 185.249 313.462 185.444 313.697 185.665C313.476 185.849 313.259 186.061 313.053 186.299C312.734 185.933 312.147 185.486 311.591 185.312C311.453 185.269 311.307 185.346 311.264 185.483C311.221 185.621 311.297 185.767 311.435 185.811C312.012 185.991 312.543 186.487 312.723 186.716C312.118 187.554 311.807 188.446 311.864 189.204C311.874 189.341 311.989 189.445 312.124 189.445C312.131 189.445 312.137 189.445 312.144 189.445C312.288 189.434 312.396 189.309 312.385 189.165C312.333 188.47 312.685 187.58 313.328 186.785C313.558 186.5 313.807 186.249 314.06 186.044C314.399 186.434 314.692 186.887 314.935 187.399C314.997 187.53 315.153 187.585 315.283 187.523C315.414 187.461 315.469 187.305 315.407 187.175C315.151 186.636 314.843 186.157 314.489 185.741C314.772 185.57 315.049 185.463 315.299 185.434C315.442 185.418 315.545 185.288 315.528 185.145C315.512 185.001 315.382 184.899 315.239 184.915C314.886 184.956 314.504 185.109 314.125 185.352C313.845 185.08 313.542 184.841 313.214 184.637C312.79 184.372 312.366 184.115 311.936 183.876C312.005 183.89 312.074 183.909 312.144 183.934C312.28 183.984 312.43 183.915 312.479 183.779C312.529 183.644 312.46 183.494 312.324 183.444C311.873 183.278 311.454 183.303 311.072 183.431C310.013 182.931 308.9 182.593 307.655 182.593C307.522 182.593 307.391 182.596 307.262 182.603C307.25 182.546 307.232 182.49 307.207 182.436C307.147 182.305 306.992 182.248 306.861 182.308C306.73 182.368 306.673 182.523 306.732 182.653C305.935 182.76 305.22 183.002 304.567 183.333C304.14 183.126 303.744 183.019 303.561 183.019C303.417 183.019 303.3 183.135 303.3 183.28C303.3 183.424 303.417 183.541 303.561 183.541C303.631 183.541 303.791 183.58 303.991 183.655C303.478 183.971 303.001 184.338 302.549 184.731C302.54 184.7 302.534 184.669 302.531 184.638C302.516 184.494 302.388 184.389 302.245 184.404C302.101 184.418 301.997 184.546 302.011 184.69C302.025 184.831 302.068 184.968 302.137 185.1C301.897 185.322 301.663 185.549 301.433 185.776C301.182 186.025 300.945 186.295 300.726 186.581C300.06 186.613 299.441 186.766 299.085 187.012C298.966 187.094 298.936 187.257 299.018 187.376C299.1 187.494 299.263 187.524 299.381 187.442ZM306.652 183.193C306.46 183.599 306.063 184.07 305.853 184.319C305.845 184.328 305.838 184.337 305.83 184.346C305.811 184.317 305.79 184.288 305.768 184.259C305.591 184.024 305.36 183.821 305.114 183.651C305.614 183.429 306.124 183.277 306.652 183.193Z" fill="#302EA7" stroke="black" stroke-width="0.2"/>
<path d="M313.253 191.676C313.266 191.677 313.278 191.678 313.29 191.678C313.418 191.678 313.53 191.584 313.549 191.454C313.584 191.206 313.495 190.954 313.29 190.726C313.162 190.584 312.906 190.375 312.719 190.375C312.716 190.375 312.713 190.375 312.71 190.375C312.566 190.38 312.453 190.501 312.458 190.645C312.462 190.771 312.555 190.873 312.674 190.893C312.767 190.937 313.062 191.166 313.031 191.38C313.011 191.523 313.11 191.655 313.253 191.676Z" fill="#302EA7" stroke="black" stroke-width="0.2"/>
<path d="M303.353 190.823C302.996 190.93 302.363 191.551 302.266 191.793C302.212 191.927 302.277 192.079 302.411 192.133C302.443 192.145 302.476 192.151 302.508 192.151C302.611 192.151 302.708 192.091 302.749 191.991C302.823 191.849 303.317 191.379 303.504 191.323C303.642 191.281 303.72 191.136 303.679 190.997C303.637 190.859 303.491 190.781 303.353 190.823Z" fill="#302EA7" stroke="black" stroke-width="0.2"/>
<path d="M304.747 195.149C305.114 195.592 305.53 196.095 306.292 196.456C306.328 196.473 306.367 196.481 306.404 196.481C306.502 196.481 306.596 196.426 306.64 196.332C306.702 196.202 306.646 196.046 306.516 195.984C306.081 195.778 305.776 195.518 305.519 195.243C305.575 195.229 305.632 195.214 305.692 195.198C306.253 195.051 306.951 194.868 307.256 195.237C307.308 195.299 307.382 195.331 307.457 195.331C307.516 195.331 307.575 195.311 307.624 195.271C307.735 195.179 307.75 195.014 307.658 194.903C307.14 194.279 306.227 194.518 305.56 194.693C305.402 194.734 305.251 194.774 305.132 194.794C304.63 194.187 304.102 193.566 302.774 193.472C302.63 193.462 302.505 193.571 302.495 193.714C302.485 193.858 302.593 193.983 302.737 193.993C303.858 194.072 304.25 194.547 304.747 195.149Z" fill="#302EA7" stroke="black" stroke-width="0.2"/>
<path d="M316.763 192.369C316.69 192.244 316.53 192.203 316.405 192.276C316.361 192.303 316.279 192.352 316.175 192.418C316.222 192.021 316.246 191.61 316.246 191.184C316.246 190.812 316.228 190.446 316.191 190.088C316.395 189.72 316.521 189.327 316.462 188.882C316.442 188.739 316.311 188.639 316.168 188.658C316.081 188.67 316.01 188.723 315.972 188.795C315.936 188.648 315.898 188.503 315.856 188.359C315.815 188.221 315.67 188.141 315.531 188.182C315.393 188.223 315.314 188.368 315.354 188.506C315.492 188.975 315.592 189.466 315.653 189.973C315.53 190.171 315.382 190.368 315.23 190.57C315.224 190.578 315.218 190.587 315.212 190.595C315.172 190.543 315.127 190.487 315.077 190.424C314.668 189.913 313.984 189.057 314.236 188.393C314.287 188.258 314.219 188.107 314.084 188.056C313.949 188.005 313.798 188.073 313.747 188.208C313.39 189.15 314.19 190.152 314.668 190.75C314.746 190.846 314.836 190.959 314.89 191.037C314.667 191.364 314.473 191.711 314.381 192.105C314.349 192.245 314.436 192.385 314.577 192.418C314.597 192.423 314.616 192.425 314.636 192.425C314.755 192.425 314.862 192.343 314.89 192.223C315.001 191.745 315.33 191.307 315.648 190.884C315.671 190.853 315.694 190.823 315.716 190.793C315.721 190.922 315.724 191.053 315.724 191.184C315.724 191.75 315.679 192.287 315.593 192.794C315.137 193.1 314.645 193.459 314.519 193.653C314.441 193.774 314.476 193.936 314.597 194.014C314.641 194.042 314.69 194.056 314.738 194.056C314.824 194.056 314.908 194.014 314.958 193.937C314.998 193.878 315.178 193.731 315.426 193.549C315.293 194.036 315.115 194.491 314.893 194.911C314.782 195.121 314.659 195.322 314.525 195.516C314.097 195.643 313.695 195.645 313.312 195.523C312.73 195.337 312.239 194.888 311.822 194.415C312.36 194.289 312.937 194.214 313.497 194.158C313.641 194.143 313.745 194.015 313.731 193.872C313.717 193.728 313.588 193.624 313.445 193.638C311.831 193.8 310.076 194.124 309.288 195.303C309.207 195.423 309.24 195.586 309.36 195.666C309.404 195.695 309.455 195.71 309.504 195.71C309.589 195.71 309.671 195.669 309.722 195.594C310.05 195.103 310.607 194.784 311.266 194.568C311.764 195.163 312.373 195.772 313.153 196.021C313.396 196.098 313.644 196.137 313.896 196.137C313.941 196.137 313.986 196.136 314.031 196.134C313.545 196.666 312.957 197.115 312.27 197.475C312.112 197.558 311.954 197.643 311.793 197.732C311.357 197.618 310.879 197.378 310.507 197.16C310.72 197.094 310.941 197.013 311.168 196.911C311.3 196.851 311.359 196.697 311.299 196.565C311.24 196.434 311.085 196.375 310.954 196.434C310.234 196.759 309.559 196.858 309.016 196.937C308.534 197.008 308.117 197.068 307.808 197.264C307.687 197.341 307.65 197.503 307.728 197.624C307.777 197.703 307.862 197.746 307.948 197.746C307.996 197.746 308.045 197.733 308.088 197.705C308.303 197.569 308.651 197.518 309.092 197.454C309.311 197.422 309.551 197.387 309.807 197.336C309.966 197.443 310.308 197.664 310.721 197.87C310.877 197.948 311.027 198.015 311.171 198.073C310.049 198.684 308.889 199.254 307.654 199.254C306.597 199.254 305.64 199.1 304.792 198.795C304.833 198.571 304.849 198.345 304.838 198.117C304.95 198.099 305.074 198.069 305.216 198.035C305.606 197.94 306.092 197.823 306.49 197.96C306.626 198.008 306.775 197.935 306.822 197.799C306.869 197.663 306.797 197.514 306.661 197.467C306.119 197.279 305.526 197.422 305.093 197.527C304.991 197.552 304.866 197.582 304.77 197.598C304.722 197.371 304.648 197.143 304.548 196.916C304.232 196.195 303.726 195.653 303.531 195.504C303.416 195.416 303.252 195.438 303.165 195.553C303.077 195.667 303.099 195.831 303.213 195.919C303.294 195.981 303.769 196.439 304.07 197.126C304.18 197.377 304.254 197.626 304.291 197.872C304.292 197.887 304.294 197.901 304.298 197.915C304.329 198.144 304.329 198.371 304.297 198.595C303.957 198.44 303.636 198.259 303.336 198.051C303.217 197.969 303.055 197.998 302.972 198.117C302.89 198.235 302.92 198.398 303.038 198.48C303.39 198.724 303.766 198.934 304.168 199.109C304.113 199.26 304.043 199.408 303.959 199.555C303.887 199.68 303.93 199.84 304.055 199.912C304.096 199.935 304.141 199.946 304.185 199.946C304.275 199.946 304.363 199.899 304.412 199.815C304.509 199.647 304.589 199.475 304.653 199.3C305.548 199.616 306.552 199.776 307.654 199.776C309.162 199.776 310.564 199.004 311.801 198.323C311.825 198.31 311.849 198.297 311.873 198.284C312.009 198.308 312.137 198.321 312.258 198.321C312.385 198.321 312.505 198.307 312.615 198.279C312.754 198.243 312.839 198.101 312.803 197.962C312.789 197.906 312.758 197.86 312.717 197.826C313.583 197.338 314.296 196.713 314.85 195.959C315.24 195.818 315.642 195.592 316.062 195.28C316.178 195.194 316.202 195.031 316.116 194.915C316.03 194.799 315.866 194.775 315.75 194.861C315.622 194.956 315.497 195.042 315.373 195.119C315.691 194.51 315.923 193.836 316.067 193.104C316.267 192.973 316.474 192.842 316.671 192.726C316.795 192.653 316.836 192.493 316.763 192.369Z" fill="#302EA7" stroke="black" stroke-width="0.2"/>
<path d="M301.604 196.143C301.73 195.772 301.899 195.456 302.09 195.245C302.187 195.138 302.178 194.973 302.071 194.876C301.964 194.779 301.799 194.788 301.702 194.895C301.542 195.072 301.404 195.292 301.289 195.532C301.14 195.239 300.977 194.943 300.817 194.655C300.388 193.877 299.948 193.08 299.728 192.239C299.81 191.96 299.911 191.72 300.028 191.509C300.035 191.517 300.042 191.524 300.05 191.532C300.427 191.916 301.212 192.715 301.212 193.318C301.212 193.463 301.329 193.58 301.473 193.58C301.618 193.58 301.735 193.463 301.735 193.318C301.735 192.502 300.881 191.633 300.423 191.166C300.391 191.134 300.358 191.1 300.328 191.069C300.713 190.605 301.203 190.307 301.745 189.978C301.84 189.92 301.937 189.862 302.034 189.801C302.156 189.725 302.194 189.564 302.118 189.442C302.042 189.319 301.881 189.282 301.758 189.358C301.663 189.417 301.568 189.475 301.474 189.532C300.853 189.909 300.25 190.275 299.79 190.914C299.788 190.916 299.786 190.919 299.784 190.922C299.783 190.923 299.782 190.925 299.781 190.927C299.713 191.023 299.648 191.125 299.586 191.234C299.586 191.217 299.585 191.2 299.585 191.183C299.585 190.898 299.607 190.604 299.65 190.312C299.671 190.169 299.573 190.036 299.43 190.015C299.288 189.994 299.155 190.093 299.134 190.235C299.087 190.553 299.063 190.872 299.063 191.183C299.063 191.547 299.11 191.898 299.189 192.24C299.071 192.692 298.995 193.228 298.971 193.873C298.966 194.017 299.079 194.138 299.223 194.143C299.226 194.143 299.229 194.143 299.233 194.143C299.372 194.143 299.488 194.032 299.493 193.892C299.501 193.674 299.515 193.47 299.535 193.279C299.771 193.839 300.068 194.377 300.36 194.907C300.564 195.276 300.756 195.624 300.925 195.974C300.962 196.05 301 196.125 301.039 196.2C300.846 196.879 300.817 197.56 300.968 197.838C301.015 197.925 301.105 197.974 301.198 197.974C301.24 197.974 301.283 197.964 301.322 197.942C301.449 197.873 301.496 197.714 301.427 197.588C301.393 197.523 301.37 197.256 301.432 196.853C301.627 197.14 301.843 197.408 302.077 197.655C302.128 197.709 302.197 197.736 302.266 197.736C302.331 197.736 302.395 197.712 302.446 197.664C302.55 197.565 302.555 197.4 302.455 197.295C302.132 196.954 301.847 196.568 301.604 196.143Z" fill="#302EA7" stroke="black" stroke-width="0.2"/>
<path d="M309.329 191.143C309.507 191.321 309.74 191.41 309.974 191.41C310.207 191.41 310.441 191.321 310.619 191.143L310.953 190.808C311.036 190.725 311.082 190.615 311.082 190.498C311.082 190.381 311.036 190.27 310.953 190.188L310.284 189.518C310.201 189.435 310.091 189.39 309.974 189.39C309.856 189.39 309.746 189.435 309.663 189.518L309.329 189.853C308.973 190.209 308.973 190.787 309.329 191.143L309.329 191.143ZM309.698 190.222L309.974 189.947L310.525 190.498L310.249 190.774C310.097 190.926 309.85 190.926 309.698 190.774C309.546 190.622 309.546 190.374 309.698 190.222Z" fill="#302EA7" stroke="black" stroke-width="0.2"/>
<path d="M300.743 188.495C300.639 188.595 300.636 188.76 300.736 188.864C300.787 188.918 300.856 188.944 300.924 188.944C300.989 188.944 301.055 188.92 301.105 188.872C301.257 188.725 301.566 188.66 301.747 188.693C301.889 188.719 302.025 188.625 302.051 188.483C302.077 188.341 301.982 188.205 301.84 188.179C301.527 188.122 301.036 188.214 300.743 188.495Z" fill="#302EA7" stroke="black" stroke-width="0.2"/>
<path d="M305.616 193.513C305.667 193.566 305.735 193.593 305.804 193.593C305.869 193.593 305.935 193.568 305.986 193.519C306.089 193.418 306.091 193.253 305.991 193.149C305.731 192.882 305.169 191.534 305.494 190.735C305.691 190.251 305.769 189.392 305.698 188.493C305.661 188.033 305.527 186.908 305.068 186.398C304.971 186.291 304.806 186.282 304.699 186.379C304.592 186.475 304.583 186.64 304.68 186.747C304.92 187.015 305.111 187.7 305.177 188.535C305.212 188.971 305.209 189.4 305.173 189.767C304.681 188.922 303.939 188.602 303.497 188.412C303.394 188.368 303.306 188.33 303.244 188.296C303.118 188.226 302.959 188.271 302.889 188.397C302.819 188.523 302.865 188.682 302.991 188.752C303.075 188.799 303.175 188.842 303.291 188.892C303.826 189.122 304.627 189.468 304.978 190.627C304.627 191.656 305.236 193.122 305.616 193.513Z" fill="#302EA7" stroke="black" stroke-width="0.2"/>
<path d="M267.632 188.248L267.632 188.248L267.634 188.246C269.525 186.888 271.664 186.741 273.823 187.179C275.985 187.618 278.152 188.642 280.081 189.609L280.082 189.609C282.345 190.723 284.705 191.491 287.261 191.991L287.261 191.991C288.901 192.306 290.099 192.069 291.15 191.483C292.127 190.938 292.972 190.093 293.919 189.144C293.979 189.083 294.04 189.022 294.102 188.96C294.419 188.643 294.693 188.634 294.831 188.706C294.959 188.773 295.051 188.954 294.927 189.222C293.607 191.244 291.958 192.413 290.06 192.84C288.156 193.268 285.983 192.954 283.614 191.975C282.529 191.526 281.433 190.973 280.321 190.412C280.173 190.337 280.024 190.262 279.874 190.187C278.612 189.552 277.329 188.924 276.032 188.452C273.436 187.506 270.763 187.179 268.045 188.674L268.045 188.674L268.038 188.678C267.85 188.794 267.67 188.731 267.576 188.614C267.527 188.555 267.506 188.487 267.512 188.428C267.517 188.372 267.546 188.307 267.632 188.248Z" fill="#302EA7" stroke="black" stroke-width="0.3"/>
<path d="M298.118 183.757L298.118 183.757C298.389 184.088 298.303 184.493 298.057 184.732C297.935 184.85 297.779 184.92 297.619 184.919C297.462 184.918 297.282 184.85 297.106 184.659C294.164 181.054 290.423 180.086 286.374 180.335C282.824 180.552 279.022 181.706 275.299 182.836C274.786 182.992 274.274 183.147 273.765 183.299C269.546 184.561 265.494 185.617 262.036 185.102C260.312 184.846 258.739 184.199 257.367 182.991C255.993 181.782 254.812 180.005 253.887 177.474L253.888 177.474L253.884 177.467C253.85 177.387 253.861 177.32 253.899 177.261C253.939 177.196 254.015 177.136 254.111 177.099C254.206 177.063 254.307 177.055 254.387 177.075C254.464 177.095 254.524 177.139 254.558 177.219L254.558 177.219L254.56 177.224C255.553 179.356 256.845 181.17 258.515 182.404C260.188 183.64 262.233 184.289 264.715 184.104C268.308 183.86 271.701 182.707 275.038 181.573C275.726 181.339 276.411 181.107 277.096 180.883C280.855 179.678 284.741 178.718 288.374 178.899C292 179.08 295.373 180.397 298.118 183.757Z" fill="#302EA7" stroke="black" stroke-width="0.3"/>
<path d="M317.405 196.329C316.786 197.836 314.826 199.982 312.122 201.075C310.956 201.547 311.126 202.301 311.73 202.231C313.691 202.004 316.559 199.92 317.838 197.567C319.162 195.133 318.422 193.854 317.405 196.329Z" fill="#302EA7" stroke="black" stroke-width="0.2"/>
<path d="M305.82 202.292C304.484 202.35 302.304 201.728 300.758 200.298C300.09 199.681 299.544 200.023 299.754 200.396C300.433 201.606 302.797 202.84 304.963 202.955C307.205 203.073 308.015 202.198 305.82 202.292Z" fill="#302EA7" stroke="black" stroke-width="0.2"/>
<defs>
<filter id="filter0_i_863_3688" x="0" y="0" width="416.915" height="294.139" filterUnits="userSpaceOnUse" color-interpolation-filters="sRGB">
<feFlood flood-opacity="0" result="BackgroundImageFix"/>
<feBlend mode="normal" in="SourceGraphic" in2="BackgroundImageFix" result="shape"/>
<feColorMatrix in="SourceAlpha" type="matrix" values="0 0 0 0 0 0 0 0 0 0 0 0 0 0 0 0 0 0 127 0" result="hardAlpha"/>
<feOffset dy="6.1386"/>
<feGaussianBlur stdDeviation="8.1848"/>
<feComposite in2="hardAlpha" operator="arithmetic" k2="-1" k3="1"/>
<feColorMatrix type="matrix" values="0 0 0 0 0 0 0 0 0 0 0 0 0 0 0 0 0 0 0.25 0"/>
<feBlend mode="normal" in2="shape" result="effect1_innerShadow_863_3688"/>
</filter>
</defs>
</svg>
