<svg width="690" height="466" viewBox="0 0 690 466" fill="none" xmlns="http://www.w3.org/2000/svg">
<path fill-rule="evenodd" clip-rule="evenodd" d="M207.858 50.4963C209.58 50.4963 210.976 51.8919 210.976 53.6134V64.5231C210.976 66.2446 209.58 67.6402 207.858 67.6402C206.135 67.6402 204.739 66.2446 204.739 64.5231V53.6134C204.739 51.8919 206.135 50.4963 207.858 50.4963Z" fill="#166835"/>
<path fill-rule="evenodd" clip-rule="evenodd" d="M207.858 30.2355C209.58 30.2355 210.976 31.631 210.976 33.3525V44.7298C210.976 46.4513 209.58 47.8468 207.858 47.8468C206.135 47.8468 204.739 46.4513 204.739 44.7298V33.3525C204.739 31.631 206.135 30.2355 207.858 30.2355Z" fill="#166835"/>
<path fill-rule="evenodd" clip-rule="evenodd" d="M207.858 5.22107C209.58 5.22107 210.976 6.61662 210.976 8.33813V23.2221C210.976 24.9436 209.58 26.3391 207.858 26.3391C206.135 26.3391 204.739 24.9436 204.739 23.2221V8.33813C204.739 6.61662 206.135 5.22107 207.858 5.22107Z" fill="#166835"/>
<path fill-rule="evenodd" clip-rule="evenodd" d="M185 52.4959C186.694 52.1868 188.318 53.3092 188.627 55.0027L190.577 65.6787C190.886 67.3722 189.763 68.9956 188.068 69.3047C186.374 69.6137 184.75 68.4913 184.441 66.7978L182.491 56.1219C182.182 54.4283 183.305 52.8049 185 52.4959Z" fill="#166835"/>
<path fill-rule="evenodd" clip-rule="evenodd" d="M181.497 32.5449C183.192 32.239 184.814 33.3644 185.12 35.0585L187.147 46.2799C187.453 47.974 186.327 49.5953 184.632 49.9012C182.937 50.2071 181.315 49.0817 181.009 47.3876L178.982 36.1662C178.676 34.4721 179.802 32.8508 181.497 32.5449Z" fill="#166835"/>
<path fill-rule="evenodd" clip-rule="evenodd" d="M177.13 7.92108C178.824 7.61472 180.447 8.73964 180.753 10.4337L183.404 25.0838C183.711 26.7779 182.585 28.3995 180.89 28.7059C179.196 29.0122 177.573 27.8873 177.267 26.1933L174.616 11.5431C174.309 9.84908 175.435 8.22745 177.13 7.92108Z" fill="#166835"/>
<path fill-rule="evenodd" clip-rule="evenodd" d="M162.968 58.4013C164.585 57.8091 166.376 58.6393 166.969 60.2557L170.711 70.4641C171.304 72.0805 170.473 73.871 168.856 74.4632C167.239 75.0555 165.447 74.2253 164.855 72.6089L161.112 62.4005C160.52 60.7841 161.35 58.9936 162.968 58.4013Z" fill="#166835"/>
<path fill-rule="evenodd" clip-rule="evenodd" d="M156.032 39.3867C157.65 38.7965 159.441 39.629 160.031 41.2461L163.93 51.9221C164.52 53.5392 163.687 55.3287 162.069 55.9189C160.451 56.5091 158.661 55.6766 158.07 54.0594L154.172 43.3835C153.582 41.7663 154.414 39.9769 156.032 39.3867Z" fill="#166835"/>
<path fill-rule="evenodd" clip-rule="evenodd" d="M147.452 15.8545C149.069 15.2619 150.861 16.0917 151.454 17.708L156.599 31.7347C157.192 33.351 156.362 35.1417 154.745 35.7343C153.128 36.327 151.336 35.4971 150.743 33.8809L145.597 19.8541C145.005 18.2378 145.835 16.4472 147.452 15.8545Z" fill="#166835"/>
<path fill-rule="evenodd" clip-rule="evenodd" d="M142.208 68.0591C143.699 67.1971 145.607 67.7062 146.469 69.1963L151.927 78.6254C152.789 80.1155 152.28 82.0224 150.789 82.8844C149.298 83.7465 147.39 83.2373 146.528 81.7472L141.07 72.3181C140.208 70.828 140.717 68.9212 142.208 68.0591Z" fill="#166835"/>
<path fill-rule="evenodd" clip-rule="evenodd" d="M132.158 50.5213C133.651 49.6634 135.557 50.1779 136.416 51.6704L142.107 61.567C142.966 63.0595 142.451 64.9649 140.958 65.8228C139.464 66.6807 137.558 66.1662 136.7 64.6737L131.008 54.7771C130.15 53.2846 130.665 51.3792 132.158 50.5213Z" fill="#166835"/>
<path fill-rule="evenodd" clip-rule="evenodd" d="M119.598 28.8619C121.089 28 122.997 28.5095 123.859 29.9997L131.344 42.9355C132.206 44.4258 131.696 46.3325 130.205 47.1943C128.714 48.0561 126.807 47.5467 125.944 46.0565L118.46 33.1207C117.597 31.6304 118.107 29.7237 119.598 28.8619Z" fill="#166835"/>
<path fill-rule="evenodd" clip-rule="evenodd" d="M123.518 81.1517C124.836 80.0436 126.803 80.2132 127.912 81.5307L134.929 89.8688C136.038 91.1862 135.868 93.1525 134.55 94.2607C133.232 95.3688 131.264 95.1991 130.156 93.8817L123.139 85.5435C122.03 84.2261 122.2 82.2598 123.518 81.1517Z" fill="#166835"/>
<path fill-rule="evenodd" clip-rule="evenodd" d="M110.5 65.6422C111.82 64.5355 113.787 64.7073 114.894 66.0259L122.223 74.7537C123.33 76.0723 123.158 78.0384 121.839 79.1451C120.52 80.2518 118.552 80.08 117.445 78.7614L110.116 70.0337C109.009 68.715 109.181 66.7489 110.5 65.6422Z" fill="#166835"/>
<path fill-rule="evenodd" clip-rule="evenodd" d="M94.3552 46.4773C95.6717 45.3673 97.6393 45.5342 98.7498 46.8501L108.418 58.3052C109.528 59.6211 109.361 61.5876 108.045 62.6976C106.728 63.8076 104.761 63.6407 103.65 62.3248L93.9822 50.8697C92.8717 49.5538 93.0387 47.5873 94.3552 46.4773Z" fill="#166835"/>
<path fill-rule="evenodd" clip-rule="evenodd" d="M107.379 97.3637C108.48 96.0402 110.446 95.8597 111.77 96.9606L120.113 103.896C121.437 104.997 121.618 106.962 120.516 108.286C119.415 109.609 117.448 109.79 116.124 108.689L107.782 101.753C106.458 100.653 106.277 98.6872 107.379 97.3637Z" fill="#166835"/>
<path fill-rule="evenodd" clip-rule="evenodd" d="M91.8811 84.3289C92.9942 83.0151 94.9621 82.852 96.2765 83.9646L104.931 91.2896C106.245 92.4022 106.408 94.369 105.295 95.6827C104.182 96.9965 102.214 97.1596 100.9 96.047L92.2456 88.722C90.9312 87.6094 90.768 85.6426 91.8811 84.3289Z" fill="#166835"/>
<path fill-rule="evenodd" clip-rule="evenodd" d="M72.6117 68.2122C73.717 66.8919 75.6838 66.7172 77.0048 67.8219L88.4658 77.4068C89.7868 78.5116 89.9616 80.4774 88.8563 81.7977C87.751 83.118 85.7842 83.2927 84.4632 82.188L73.0022 72.6031C71.6812 71.4983 71.5064 69.5325 72.6117 68.2122Z" fill="#166835"/>
<path fill-rule="evenodd" clip-rule="evenodd" d="M94.2124 116.029C95.0749 114.539 96.9827 114.03 98.4736 114.892L107.907 120.347C109.398 121.209 109.908 123.116 109.045 124.606C108.183 126.096 106.275 126.605 104.784 125.743L95.3502 120.288C93.8593 119.426 93.3499 117.519 94.2124 116.029Z" fill="#166835"/>
<path fill-rule="evenodd" clip-rule="evenodd" d="M76.6656 105.906C77.524 104.414 79.4303 103.899 80.9236 104.757L90.8253 110.446C92.3185 111.304 92.8332 113.209 91.9749 114.702C91.1166 116.194 89.2102 116.709 87.7169 115.851L77.8153 110.162C76.322 109.304 75.8073 107.399 76.6656 105.906Z" fill="#166835"/>
<path fill-rule="evenodd" clip-rule="evenodd" d="M54.9951 93.3539C55.8574 91.8637 57.7651 91.3542 59.2561 92.2161L72.1985 99.697C73.6895 100.559 74.1992 102.466 73.3369 103.956C72.4747 105.446 70.567 105.955 69.076 105.094L56.1336 97.6127C54.6426 96.7509 54.1329 94.8442 54.9951 93.3539Z" fill="#166835"/>
<path fill-rule="evenodd" clip-rule="evenodd" d="M84.5399 136.806C85.1177 135.184 86.9014 134.338 88.524 134.915L98.8155 138.578C100.438 139.155 101.285 140.938 100.707 142.56C100.13 144.182 98.3459 145.028 96.7233 144.451L86.4318 140.788C84.8092 140.211 83.9622 138.428 84.5399 136.806Z" fill="#166835"/>
<path fill-rule="evenodd" clip-rule="evenodd" d="M65.5221 129.855C66.1088 128.236 67.8972 127.399 69.5166 127.986L80.2759 131.882C81.8953 132.468 82.7324 134.256 82.1457 135.875C81.5589 137.493 79.7705 138.33 78.1512 137.743L67.3918 133.847C65.7725 133.261 64.9354 131.473 65.5221 129.855Z" fill="#166835"/>
<path fill-rule="evenodd" clip-rule="evenodd" d="M41.9753 121.286C42.5603 119.667 44.3478 118.828 45.9678 119.413L60.0017 124.478C61.6217 125.063 62.4607 126.849 61.8757 128.468C61.2907 130.088 59.5032 130.926 57.8832 130.341L43.8493 125.276C42.2293 124.692 41.3903 122.905 41.9753 121.286Z" fill="#166835"/>
<path fill-rule="evenodd" clip-rule="evenodd" d="M78.636 158.825C78.9311 157.129 80.546 155.994 82.2429 156.289L93.0022 158.159C94.6991 158.454 95.8355 160.068 95.5404 161.764C95.2452 163.46 93.6304 164.596 91.9335 164.301L81.1742 162.43C79.4773 162.136 78.3409 160.521 78.636 158.825Z" fill="#166835"/>
<path fill-rule="evenodd" clip-rule="evenodd" d="M58.7551 155.316C59.0517 153.62 60.6676 152.486 62.3642 152.782L73.5134 154.73C75.21 155.027 76.345 156.642 76.0484 158.338C75.7518 160.034 74.1359 161.168 72.4393 160.871L61.2901 158.923C59.5934 158.627 58.4585 157.012 58.7551 155.316Z" fill="#166835"/>
<path fill-rule="evenodd" clip-rule="evenodd" d="M34.0397 150.953C34.3359 149.257 35.9515 148.122 37.6482 148.418L52.3838 150.99C54.0806 151.286 55.2158 152.901 54.9196 154.597C54.6233 156.292 53.0077 157.427 51.311 157.131L36.5754 154.56C34.8787 154.263 33.7434 152.649 34.0397 150.953Z" fill="#166835"/>
<path fill-rule="evenodd" clip-rule="evenodd" d="M76.6406 181.569C76.6406 179.847 78.0369 178.452 79.7593 178.452H90.6745C92.3969 178.452 93.7932 179.847 93.7932 181.569C93.7932 183.29 92.3969 184.686 90.6745 184.686H79.7593C78.0369 184.686 76.6406 183.29 76.6406 181.569Z" fill="#166835"/>
<path fill-rule="evenodd" clip-rule="evenodd" d="M56.4475 181.569C56.4475 179.847 57.8438 178.452 59.5662 178.452H70.9492C72.6716 178.452 74.0679 179.847 74.0679 181.569C74.0679 183.29 72.6716 184.686 70.9492 184.686H59.5662C57.8438 184.686 56.4475 183.29 56.4475 181.569Z" fill="#166835"/>
<path fill-rule="evenodd" clip-rule="evenodd" d="M31.3423 181.569C31.3423 179.847 32.7385 178.452 34.4609 178.452H49.4304C51.1528 178.452 52.5491 179.847 52.5491 181.569C52.5491 183.29 51.1528 184.686 49.4304 184.686H34.4609C32.7385 184.686 31.3423 183.29 31.3423 181.569Z" fill="#166835"/>
<path fill-rule="evenodd" clip-rule="evenodd" d="M95.5404 201.374C95.8355 203.07 94.6991 204.684 93.0022 204.979L82.2429 206.849C80.546 207.144 78.9311 206.008 78.636 204.312C78.3409 202.616 79.4773 201.002 81.1742 200.707L91.9335 198.837C93.6304 198.542 95.2452 199.678 95.5404 201.374Z" fill="#166835"/>
<path fill-rule="evenodd" clip-rule="evenodd" d="M76.0484 204.8C76.345 206.496 75.21 208.111 73.5134 208.407L62.3642 210.356C60.6676 210.652 59.0517 209.518 58.7551 207.822C58.4585 206.126 59.5934 204.511 61.2901 204.215L72.4393 202.266C74.1359 201.97 75.7518 203.104 76.0484 204.8Z" fill="#166835"/>
<path fill-rule="evenodd" clip-rule="evenodd" d="M54.9196 208.541C55.2158 210.237 54.0806 211.852 52.3838 212.148L37.6482 214.72C35.9515 215.016 34.3359 213.881 34.0397 212.185C33.7434 210.489 34.8787 208.874 36.5754 208.578L51.311 206.007C53.0077 205.711 54.6233 206.845 54.9196 208.541Z" fill="#166835"/>
<path fill-rule="evenodd" clip-rule="evenodd" d="M100.7 220.557C101.289 222.175 100.454 223.964 98.8352 224.552L88.5437 228.293C86.925 228.881 85.1356 228.046 84.547 226.428C83.9584 224.811 84.7934 223.022 86.4121 222.434L96.7036 218.693C98.3223 218.105 100.112 218.94 100.7 220.557Z" fill="#166835"/>
<path fill-rule="evenodd" clip-rule="evenodd" d="M82.1457 227.341C82.7324 228.96 81.8953 230.747 80.2759 231.334L69.5166 235.23C67.8972 235.816 66.1088 234.98 65.5221 233.361C64.9354 231.743 65.7725 229.955 67.3918 229.369L78.1512 225.472C79.7705 224.886 81.5589 225.723 82.1457 227.341Z" fill="#166835"/>
<path fill-rule="evenodd" clip-rule="evenodd" d="M61.8705 234.654C62.4634 236.271 61.6332 238.061 60.0161 238.654L45.9822 243.797C44.3651 244.39 42.5735 243.56 41.9805 241.944C41.3876 240.327 42.2178 238.537 43.8349 237.944L57.8688 232.801C59.486 232.208 61.2775 233.038 61.8705 234.654Z" fill="#166835"/>
<path fill-rule="evenodd" clip-rule="evenodd" d="M109.045 238.531C109.908 240.021 109.398 241.928 107.907 242.79L98.4736 248.245C96.9827 249.107 95.0749 248.598 94.2124 247.108C93.3499 245.618 93.8593 243.711 95.3502 242.849L104.784 237.394C106.275 236.532 108.183 237.041 109.045 238.531Z" fill="#166835"/>
<path fill-rule="evenodd" clip-rule="evenodd" d="M91.9749 248.435C92.8332 249.928 92.3185 251.833 90.8253 252.691L80.9236 258.38C79.4303 259.238 77.524 258.723 76.6656 257.231C75.8073 255.738 76.322 253.833 77.8153 252.975L87.7169 247.286C89.2102 246.428 91.1166 246.943 91.9749 248.435Z" fill="#166835"/>
<path fill-rule="evenodd" clip-rule="evenodd" d="M73.3369 259.182C74.1992 260.672 73.6895 262.579 72.1985 263.441L59.2561 270.922C57.7651 271.784 55.8574 271.274 54.9951 269.784C54.1329 268.294 54.6426 266.387 56.1336 265.525L69.076 258.044C70.567 257.182 72.4747 257.692 73.3369 259.182Z" fill="#166835"/>
<path fill-rule="evenodd" clip-rule="evenodd" d="M308.25 97.3527C309.357 98.6711 309.186 100.637 307.866 101.744L299.602 108.68C298.283 109.787 296.316 109.615 295.208 108.297C294.101 106.978 294.272 105.012 295.591 103.905L303.856 96.9698C305.175 95.8628 307.142 96.0342 308.25 97.3527Z" fill="#166835"/>
<path fill-rule="evenodd" clip-rule="evenodd" d="M323.756 84.3289C324.869 85.6426 324.706 87.6094 323.392 88.722L314.737 96.047C313.423 97.1596 311.455 96.9965 310.342 95.6827C309.229 94.369 309.392 92.4022 310.707 91.2896L319.361 83.9646C320.675 82.852 322.643 83.0151 323.756 84.3289Z" fill="#166835"/>
<path fill-rule="evenodd" clip-rule="evenodd" d="M343.026 68.2122C344.131 69.5325 343.956 71.4983 342.635 72.6031L331.174 82.188C329.853 83.2927 327.886 83.118 326.781 81.7977C325.676 80.4774 325.851 78.5116 327.172 77.4068L338.633 67.8219C339.954 66.7172 341.92 66.8919 343.026 68.2122Z" fill="#166835"/>
<path fill-rule="evenodd" clip-rule="evenodd" d="M292.119 81.1517C293.437 82.2598 293.607 84.2261 292.498 85.5435L285.481 93.8817C284.373 95.1991 282.405 95.3688 281.087 94.2607C279.769 93.1525 279.599 91.1862 280.708 89.8688L287.725 81.5307C288.834 80.2132 290.801 80.0436 292.119 81.1517Z" fill="#166835"/>
<path fill-rule="evenodd" clip-rule="evenodd" d="M305.137 65.6422C306.456 66.7489 306.628 68.715 305.521 70.0337L298.192 78.7614C297.085 80.08 295.118 80.2518 293.798 79.1451C292.479 78.0384 292.307 76.0723 293.414 74.7537L300.743 66.0259C301.851 64.7073 303.818 64.5355 305.137 65.6422Z" fill="#166835"/>
<path fill-rule="evenodd" clip-rule="evenodd" d="M321.273 46.4693C322.594 47.574 322.768 49.5399 321.663 50.8602L312.073 62.3153C310.968 63.6356 309.001 63.8104 307.68 62.7056C306.359 61.6009 306.184 59.635 307.29 58.3148L316.879 46.8596C317.985 45.5393 319.952 45.3646 321.273 46.4693Z" fill="#166835"/>
<path fill-rule="evenodd" clip-rule="evenodd" d="M273.429 68.0591C274.92 68.9212 275.43 70.828 274.567 72.3181L269.11 81.7472C268.247 83.2373 266.339 83.7465 264.849 82.8844C263.358 82.0224 262.848 80.1155 263.711 78.6254L269.168 69.1963C270.031 67.7062 271.939 67.1971 273.429 68.0591Z" fill="#166835"/>
<path fill-rule="evenodd" clip-rule="evenodd" d="M283.48 50.5213C284.973 51.3792 285.488 53.2846 284.629 54.7771L278.938 64.6737C278.079 66.1663 276.173 66.6807 274.68 65.8228C273.186 64.9649 272.672 63.0595 273.53 61.567L279.222 51.6704C280.08 50.1778 281.986 49.6634 283.48 50.5213Z" fill="#166835"/>
<path fill-rule="evenodd" clip-rule="evenodd" d="M296.039 28.8619C297.53 29.7237 298.04 31.6304 297.178 33.1207L289.693 46.0565C288.831 47.5467 286.923 48.0561 285.432 47.1943C283.941 46.3325 283.431 44.4258 284.293 42.9355L291.778 29.9997C292.641 28.5095 294.548 28 296.039 28.8619Z" fill="#166835"/>
<path fill-rule="evenodd" clip-rule="evenodd" d="M252.669 58.4013C254.287 58.9936 255.117 60.7841 254.525 62.4005L250.782 72.6089C250.19 74.2253 248.398 75.0555 246.781 74.4632C245.164 73.871 244.333 72.0805 244.926 70.4641L248.668 60.2557C249.261 58.6393 251.052 57.8091 252.669 58.4013Z" fill="#166835"/>
<path fill-rule="evenodd" clip-rule="evenodd" d="M259.606 39.3867C261.224 39.9769 262.056 41.7663 261.466 43.3835L257.568 54.0594C256.977 55.6766 255.187 56.5091 253.569 55.9189C251.951 55.3287 251.118 53.5392 251.708 51.9221L255.607 41.2461C256.197 39.629 257.988 38.7965 259.606 39.3867Z" fill="#166835"/>
<path fill-rule="evenodd" clip-rule="evenodd" d="M268.186 15.8545C269.803 16.4472 270.633 18.2378 270.04 19.8541L264.894 33.8809C264.301 35.4971 262.51 36.327 260.893 35.7343C259.275 35.1417 258.445 33.351 259.038 31.7347L264.184 17.708C264.777 16.0917 266.568 15.2619 268.186 15.8545Z" fill="#166835"/>
<path fill-rule="evenodd" clip-rule="evenodd" d="M230.638 52.4959C232.332 52.8049 233.455 54.4283 233.146 56.1219L231.197 66.7978C230.887 68.4913 229.263 69.6137 227.569 69.3047C225.874 68.9956 224.752 67.3722 225.061 65.6787L227.01 55.0027C227.319 53.3092 228.943 52.1868 230.638 52.4959Z" fill="#166835"/>
<path fill-rule="evenodd" clip-rule="evenodd" d="M234.141 32.5449C235.836 32.8508 236.962 34.4721 236.656 36.1662L234.628 47.3876C234.322 49.0817 232.7 50.2071 231.005 49.9012C229.31 49.5953 228.184 47.974 228.49 46.2799L230.517 35.0585C230.824 33.3644 232.446 32.239 234.141 32.5449Z" fill="#166835"/>
<path fill-rule="evenodd" clip-rule="evenodd" d="M238.508 7.92108C240.203 8.22745 241.328 9.84909 241.022 11.5431L238.371 26.1933C238.064 27.8873 236.442 29.0122 234.747 28.7058C233.052 28.3995 231.926 26.7778 232.233 25.0838L234.884 10.4337C235.19 8.73963 236.813 7.61472 238.508 7.92108Z" fill="#166835"/>
<path fill-rule="evenodd" clip-rule="evenodd" d="M7.09497 462.649C7.09497 460.928 8.49124 459.532 10.2136 459.532H118.898C120.621 459.532 122.017 460.928 122.017 462.649C122.017 464.371 120.621 465.766 118.898 465.766H10.2136C8.49124 465.766 7.09497 464.371 7.09497 462.649Z" fill="#355B3E"/>
<path fill-rule="evenodd" clip-rule="evenodd" d="M129.424 462.649C129.424 460.928 130.82 459.532 132.542 459.532H288.085C289.807 459.532 291.203 460.928 291.203 462.649C291.203 464.371 289.807 465.766 288.085 465.766H132.542C130.82 465.766 129.424 464.371 129.424 462.649Z" fill="#355B3E"/>
<path fill-rule="evenodd" clip-rule="evenodd" d="M552.312 462.649C552.312 460.928 553.708 459.532 555.431 459.532H569.542C571.265 459.532 572.661 460.928 572.661 462.649C572.661 464.371 571.265 465.766 569.542 465.766H555.431C553.708 465.766 552.312 464.371 552.312 462.649Z" fill="#355B3E"/>
<path fill-rule="evenodd" clip-rule="evenodd" d="M579.99 462.649C579.99 460.928 581.386 459.532 583.109 459.532H650.627C652.35 459.532 653.746 460.928 653.746 462.649C653.746 464.371 652.35 465.766 650.627 465.766H583.109C581.386 465.766 579.99 464.371 579.99 462.649Z" fill="#355B3E"/>
<path fill-rule="evenodd" clip-rule="evenodd" d="M659.203 462.649C659.203 460.928 660.6 459.532 662.322 459.532H667.39C669.112 459.532 670.508 460.928 670.508 462.649C670.508 464.371 669.112 465.766 667.39 465.766H662.322C660.6 465.766 659.203 464.371 659.203 462.649Z" fill="#355B3E"/>
<path fill-rule="evenodd" clip-rule="evenodd" d="M430.427 100.609C430.427 83.1464 444.532 69.0488 462.004 69.0488C473.778 69.0488 484.133 75.5641 489.523 85.1707C491.158 84.8212 492.857 84.6341 494.593 84.6341C503.837 84.6341 511.912 89.9089 515.833 97.629C516.505 97.5396 517.198 97.492 517.905 97.492C526.567 97.492 533.654 104.576 533.654 113.233C533.654 115.402 533.166 117.526 532.397 119.352C531.91 120.508 530.777 121.26 529.522 121.26H418.499C417.475 121.26 416.517 120.758 415.934 119.916C415.352 119.075 415.219 118.002 415.58 117.044C418.119 110.303 423.601 105.105 430.522 102.927C430.462 102.164 430.427 101.39 430.427 100.609ZM462.004 75.2829C447.977 75.2829 436.665 86.5894 436.665 100.609C436.665 101.964 436.8 103.359 437.02 104.822C437.269 106.484 436.156 108.044 434.503 108.35C430.063 109.17 426.269 111.6 423.719 115.025H527.233C527.352 114.433 527.417 113.828 527.417 113.233C527.417 108.019 523.122 103.726 517.905 103.726C516.845 103.726 515.852 103.903 514.993 104.19C513.393 104.723 511.659 103.888 511.079 102.305C508.635 95.6386 502.148 90.8682 494.593 90.8682C492.602 90.8682 490.673 91.2 488.875 91.7992C487.358 92.3044 485.706 91.5822 485.047 90.1269C481.091 81.3876 472.2 75.2829 462.004 75.2829Z" fill="#166835"/>
<path fill-rule="evenodd" clip-rule="evenodd" d="M567.593 136.839C567.593 123.272 578.579 112.292 592.153 112.292C604.867 112.292 615.312 121.928 616.582 134.298C616.907 134.278 617.236 134.267 617.57 134.267C626.687 134.267 634.176 141.651 634.176 150.866V151.255C634.176 152.977 632.78 154.372 631.058 154.372H560.187C558.464 154.372 557.068 152.977 557.068 151.255V150.944C557.068 144.445 561.6 139.066 567.604 137.663C567.597 137.388 567.593 137.113 567.593 136.839ZM592.153 118.526C582.024 118.526 573.831 126.716 573.831 136.839C573.831 137.957 573.901 138.908 574.082 139.812C574.265 140.728 574.028 141.677 573.436 142.4C572.843 143.122 571.958 143.54 571.024 143.54H570.712C567.633 143.54 564.967 145.433 563.856 148.138H627.576C626.375 143.725 622.329 140.501 617.57 140.501C616.518 140.501 615.507 140.676 614.524 140.983C613.577 141.279 612.545 141.106 611.746 140.519C610.947 139.932 610.475 138.999 610.475 138.008V136.839C610.475 126.716 602.281 118.526 592.153 118.526Z" fill="#166835"/>
<path d="M551.766 357.604L616.166 205.18C617.569 201.907 622.247 201.907 623.651 205.18L688.051 357.604C695.769 375.839 679.319 394.931 655.929 394.931H583.888C560.498 394.931 544.047 375.839 551.766 357.604Z" fill="#FDC858"/>
<path d="M551.766 357.604L616.166 205.18C617.569 201.907 622.247 201.907 623.651 205.18L688.051 357.604C695.769 375.839 679.319 394.931 655.929 394.931H583.888C560.498 394.931 544.047 375.839 551.766 357.604Z" fill="#FDC858"/>
<path opacity="0.56" d="M583.264 364.774L629.187 218.194L623.729 205.18C622.325 201.907 617.648 201.907 616.244 205.18L551.844 357.604C544.125 375.839 560.576 394.931 583.966 394.931H589.424C582.563 389.165 579.912 379.58 583.264 364.774Z" fill="#FDC858"/>
<path fill-rule="evenodd" clip-rule="evenodd" d="M619.908 230.117C621.631 230.117 623.027 231.513 623.027 233.235V462.65C623.027 464.371 621.631 465.767 619.908 465.767C618.186 465.767 616.79 464.371 616.79 462.65V233.235C616.79 231.513 618.186 230.117 619.908 230.117Z" fill="#355B3E"/>
<path fill-rule="evenodd" clip-rule="evenodd" d="M640.721 263.033C641.91 264.279 641.863 266.252 640.617 267.44L622.061 285.129C620.854 286.28 618.956 286.278 617.751 285.125L599.273 267.436C598.029 266.245 597.987 264.272 599.178 263.028C600.37 261.785 602.344 261.743 603.588 262.933L619.913 278.562L636.312 262.929C637.558 261.741 639.532 261.787 640.721 263.033Z" fill="#355B3E"/>
<path fill-rule="evenodd" clip-rule="evenodd" d="M595.592 296.692C596.783 295.449 598.757 295.406 600.001 296.597L619.908 315.65L639.816 296.597C641.06 295.406 643.034 295.449 644.225 296.692C645.417 297.935 645.374 299.909 644.13 301.099L622.065 322.217C620.859 323.372 618.958 323.372 617.751 322.217L595.687 301.099C594.443 299.909 594.4 297.935 595.592 296.692Z" fill="#355B3E"/>
<path fill-rule="evenodd" clip-rule="evenodd" d="M580.667 335.249C581.738 333.901 583.7 333.676 585.049 334.747L619.908 362.429L654.768 334.747C656.117 333.676 658.079 333.901 659.15 335.249C660.222 336.596 659.997 338.557 658.648 339.628L621.848 368.851C620.713 369.753 619.104 369.753 617.968 368.851L581.169 339.628C579.82 338.557 579.595 336.596 580.667 335.249Z" fill="#355B3E"/>
<path fill-rule="evenodd" clip-rule="evenodd" d="M392.303 1.45844C393.521 0.24115 395.496 0.24115 396.714 1.45844L403.864 8.60551L411.015 1.45844C412.233 0.24115 414.208 0.24115 415.426 1.45844C416.644 2.67572 416.644 4.64933 415.426 5.86662L406.07 15.2178C404.852 16.4351 402.877 16.4351 401.659 15.2178L392.303 5.86662C391.085 4.64933 391.085 2.67572 392.303 1.45844Z" fill="#166835"/>
<path fill-rule="evenodd" clip-rule="evenodd" d="M461.84 13.6242C463.053 12.4018 465.027 12.3936 466.25 13.6059L473.479 20.7712L480.639 13.615C481.857 12.3977 483.831 12.3977 485.049 13.615C486.267 14.8323 486.267 16.8059 485.049 18.0232L475.693 27.3743C474.479 28.5881 472.511 28.5921 471.292 27.3835L461.858 18.0323C460.635 16.8201 460.627 14.8465 461.84 13.6242Z" fill="#166835"/>
<path fill-rule="evenodd" clip-rule="evenodd" d="M610.14 63.8775C611.358 62.6602 613.333 62.6602 614.551 63.8775L621.711 71.0337L628.939 63.8684C630.162 62.6562 632.137 62.6643 633.35 63.8867C634.563 65.109 634.555 67.0826 633.332 68.2948L623.898 77.646C622.678 78.8547 620.711 78.8506 619.496 77.6369L610.14 68.2857C608.923 67.0684 608.923 65.0948 610.14 63.8775Z" fill="#166835"/>
<path fill-rule="evenodd" clip-rule="evenodd" d="M320.441 462.649C320.441 460.928 321.837 459.532 323.559 459.532H540.305C542.027 459.532 543.424 460.928 543.424 462.649C543.424 464.371 542.027 465.766 540.305 465.766H323.559C321.837 465.766 320.441 464.371 320.441 462.649Z" fill="#355B3E"/>
<path fill-rule="evenodd" clip-rule="evenodd" d="M297.051 462.649C297.051 460.928 298.447 459.532 300.169 459.532H326.444C328.166 459.532 329.563 460.928 329.563 462.649C329.563 464.371 328.166 465.766 326.444 465.766H300.169C298.447 465.766 297.051 464.371 297.051 462.649Z" fill="#355B3E"/>
<ellipse cx="204.93" cy="177.456" rx="101.43" ry="101.502" fill="#FDC858"/>
<g clip-path="url(#clip0_533_1751)">
<path d="M328.278 211.613V456.407C328.278 458.419 329.693 460.108 331.352 460.108H529.17C530.817 460.108 532.233 458.419 532.233 456.407V211.613C532.272 210.696 531.976 209.795 531.401 209.08L531.32 209.017C531.32 208.953 531.268 208.941 531.268 208.941C531.017 208.62 530.697 208.359 530.332 208.178C529.967 207.997 529.566 207.9 529.158 207.895H331.34C329.688 207.895 328.278 209.601 328.278 211.613Z" fill="#A2C3CB"/>
<path d="M161 211.614V456.407C161 458.42 162.416 460.108 164.074 460.108H361.875C363.539 460.108 364.955 458.42 364.955 456.407V211.614C364.991 210.695 364.691 209.794 364.112 209.081L364.036 209.017C364.036 208.954 363.973 208.942 363.921 208.907C363.68 208.591 363.369 208.335 363.011 208.16C362.654 207.985 362.261 207.897 361.864 207.901H164.057C162.416 207.901 161 209.601 161 211.614Z" fill="#A2C3CB"/>
<path d="M173.43 269.499H240.128C240.683 269.499 241.198 269.274 241.198 269.048V240.724C241.198 240.475 240.689 240.29 240.128 240.29H173.43C173.177 240.278 172.924 240.323 172.69 240.423V240.446C172.54 240.533 172.419 240.608 172.419 240.718V269.043C172.419 269.274 172.835 269.499 173.43 269.499ZM173.442 317.15H241.931C242.463 317.15 243.024 316.93 243.024 316.705V288.409C243.024 288.161 242.463 287.964 241.931 287.964H173.436C173.171 287.951 172.908 288.003 172.667 288.114V288.138C172.534 288.213 172.396 288.282 172.396 288.409V316.705C172.396 316.93 172.835 317.15 173.442 317.15ZM173.754 358.266H261.585C262.278 358.266 262.972 358.052 262.972 357.827V329.502C262.972 329.254 262.278 329.086 261.585 329.086H173.754C173.418 329.079 173.084 329.12 172.76 329.207V329.236C172.65 329.304 172.534 329.36 172.413 329.404V357.832C172.413 358.04 172.985 358.266 173.754 358.266ZM173.604 405.922H250.669C251.276 405.922 251.882 405.697 251.882 405.483V377.182C251.882 376.933 251.276 376.731 250.669 376.731H173.604C173.257 376.731 172.91 376.736 172.725 376.881V376.904L172.413 377.054V405.483C172.413 405.697 172.91 405.922 173.604 405.922ZM460.021 273.212H520.589C521.074 273.212 521.548 272.986 521.548 272.761V244.454C521.548 244.205 521.074 244.02 520.589 244.02H460.021C459.783 244.013 459.545 244.06 459.328 244.159V244.182L459.103 244.344V272.761C459.103 272.986 459.484 273.212 460.021 273.212ZM447.221 320.886H520.363C520.947 320.886 521.525 320.66 521.525 320.446V292.116C521.525 291.867 520.935 291.694 520.363 291.694H447.221C446.943 291.686 446.665 291.727 446.401 291.815V291.839C446.251 291.943 446.083 292.006 446.083 292.006V320.435C446.095 320.66 446.574 320.886 447.221 320.886ZM424.049 361.967H520.028C520.785 361.967 521.554 361.742 521.554 361.516V333.215C521.554 332.966 520.785 332.775 520.028 332.775H424.049C423.681 332.764 423.314 332.813 422.962 332.92V332.943C422.76 333.024 422.581 333.088 422.581 333.215V361.516C422.569 361.742 423.176 361.967 424.049 361.967ZM439.709 409.618H520.294C520.935 409.618 521.594 409.404 521.594 409.178V380.854C521.594 380.605 520.947 380.437 520.294 380.437H439.709C439.4 380.433 439.093 380.474 438.796 380.559V380.588C438.64 380.692 438.467 380.755 438.467 380.86V409.184C438.467 409.404 438.987 409.618 439.709 409.618Z" fill="#4F4F4F"/>
<path d="M229.056 108.927V454.735C229.056 457.586 230.669 459.969 232.581 459.969H459.796C461.703 459.969 463.304 457.586 463.304 454.735V108.916C463.304 107.366 462.94 106.175 462.368 105.342L462.269 105.244C462.269 105.244 462.206 105.145 462.148 105.093C461.605 104.249 460.802 103.676 459.785 103.676H232.576C230.669 103.676 229.056 106.059 229.056 108.916" fill="white"/>
<path d="M314.64 460.096H379.061C379.558 460.096 380.032 459.772 380.032 459.379V413.07C380.032 412.677 379.558 412.347 379.061 412.347H314.646C314.403 412.344 314.166 412.423 313.975 412.573L313.964 412.596H313.941C313.808 412.717 313.669 412.902 313.669 413.07V459.379C313.669 459.772 314.137 460.096 314.64 460.096Z" fill="#4F4F4F"/>
<path d="M322.684 437.619H333.877C333.877 437.619 334.05 437.509 334.05 437.416V424.746C334.05 424.648 333.964 424.555 333.964 424.555H322.689C322.689 424.555 322.591 424.578 322.557 424.631C322.545 424.683 322.516 424.706 322.516 424.706V437.416C322.505 437.515 322.58 437.619 322.684 437.619Z" fill="#E5E5E5"/>
<path d="M244.214 259.148H446.1C447.713 259.148 449.325 258.853 449.325 258.576V223.15C449.325 222.838 447.724 222.606 446.1 222.606H244.22C243.451 222.606 242.469 222.67 241.989 222.78V222.82C241.579 222.919 241.18 223.017 241.18 223.156V258.581C241.18 258.853 242.469 259.148 244.214 259.148ZM246.052 311.252H446.118C447.701 311.252 449.302 310.98 449.302 310.708V275.271C449.302 274.947 447.713 274.727 446.118 274.727H246.029C245.231 274.727 244.278 274.773 243.81 274.901V274.924C243.411 275.022 243.012 275.126 243.012 275.271V310.708C243.012 310.98 244.289 311.252 246.034 311.252M246.052 370.913H446.118C447.701 370.913 449.302 370.636 449.302 370.364V334.932C449.302 334.603 447.713 334.377 446.118 334.377H246.029C245.231 334.377 244.278 334.377 243.81 334.551V334.58C243.411 334.684 243.012 334.776 243.012 334.932V370.364C243.012 370.636 244.289 370.913 246.034 370.913" fill="#166835"/>
<path d="M359.385 437.619H370.595C370.595 437.619 370.751 437.509 370.751 437.416V424.746C370.751 424.648 370.659 424.555 370.659 424.555H359.385L359.263 424.631C359.24 424.683 359.211 424.706 359.211 424.706V437.416C359.211 437.515 359.298 437.619 359.385 437.619Z" fill="white"/>
<path d="M373.822 120.934C381.631 125.445 388.115 131.934 392.624 139.749C397.132 147.563 399.506 156.427 399.506 165.45C399.505 174.473 397.132 183.338 392.623 191.152C388.115 198.966 381.63 205.455 373.822 209.967C366.013 214.478 357.155 216.853 348.138 216.853C339.121 216.853 330.263 214.478 322.455 209.966C314.646 205.454 308.162 198.965 303.653 191.151C299.145 183.336 296.772 174.472 296.772 165.449L296.798 163.783C297.086 154.906 299.667 146.255 304.29 138.673C308.914 131.091 315.422 124.837 323.179 120.522C330.937 116.206 339.68 113.976 348.555 114.048C357.43 114.12 366.136 116.492 373.822 120.934ZM341.918 143.469C340.7 141.03 338.564 139.175 335.98 138.312C333.395 137.45 330.574 137.649 328.137 138.868L325.296 140.292C324.121 140.926 323.239 141.993 322.837 143.266C322.434 144.54 322.543 145.92 323.14 147.115C323.737 148.31 324.775 149.225 326.035 149.667C327.294 150.109 328.677 150.043 329.888 149.483L332.729 148.064L332.724 155.168H327.592C326.334 155.168 325.12 155.63 324.18 156.467C323.239 157.304 322.639 158.457 322.492 159.707L322.456 160.308C322.456 161.672 322.997 162.979 323.96 163.943C324.923 164.907 326.23 165.449 327.592 165.449H332.724L332.729 180.87C332.729 184.803 334.23 188.588 336.927 191.45C339.624 194.312 343.311 196.034 347.235 196.265L348.139 196.291H350.707C355.475 196.291 360.048 194.395 363.42 191.021C366.791 187.647 368.686 183.071 368.686 178.299V175.729C368.686 174.366 368.144 173.059 367.181 172.095C366.218 171.131 364.911 170.589 363.549 170.589H358.412C357.05 170.589 355.743 171.131 354.78 172.095C353.817 173.059 353.276 174.366 353.276 175.729L353.312 176.331C353.447 177.478 353.964 178.546 354.781 179.363C355.597 180.18 356.665 180.698 357.811 180.834L357.976 180.844L357.873 181.137C357.304 182.574 356.317 183.808 355.039 184.677C353.761 185.546 352.252 186.01 350.707 186.01H348.139C346.777 186.01 345.47 185.468 344.507 184.504C343.543 183.54 343.002 182.233 343.002 180.87L342.997 165.449H363.549C364.807 165.449 366.021 164.986 366.962 164.15C367.902 163.313 368.502 162.16 368.65 160.91L368.686 160.308C368.686 158.945 368.144 157.638 367.181 156.674C366.218 155.71 364.911 155.168 363.549 155.168H342.997L343.002 148.064C343.002 146.789 342.765 145.526 342.304 144.337L341.918 143.469Z" fill="#166835"/>
</g>
<defs>
<clipPath id="clip0_533_1751">
<rect width="369.84" height="370.102" fill="white" transform="translate(161 90)"/>
</clipPath>
</defs>
</svg>
